<svg width="120" height="120" viewBox="0 0 120 120" fill="none" xmlns="http://www.w3.org/2000/svg">
<path d="M0 104.527C0 113.074 6.92744 120 15.4729 120H104.527C113.074 120 120 113.073 120 104.527V15.4729C120 6.9265 113.073 0 104.527 0H15.4729C6.9265 0 0 6.92744 0 15.4729V104.527Z" fill="#563D7C"/>
<path d="M49.7614 53.0804V36.0865H64.72C66.1447 36.0865 67.5184 36.2052 68.8413 36.4427C70.1642 36.6801 71.3344 37.1041 72.352 37.7147C73.3696 38.3252 74.1837 39.1732 74.7942 40.2587C75.4048 41.3441 75.7101 42.7348 75.7101 44.4308C75.7101 47.4836 74.7942 49.6884 72.9625 51.0452C71.1309 52.402 68.7904 53.0804 65.9411 53.0804H49.7614ZM33.7852 23.6719V96.3281H68.9939C72.2502 96.3281 75.4217 95.9211 78.5084 95.107C81.5952 94.2929 84.3426 93.0379 86.751 91.3419C89.1593 89.6459 91.0757 87.4581 92.5004 84.7784C93.925 82.0987 94.6373 78.9273 94.6373 75.2639C94.6373 70.7186 93.5349 66.8349 91.3301 63.6125C89.1253 60.3901 85.7843 58.1344 81.3068 56.8455C84.5631 55.2851 87.0223 53.2839 88.6844 50.8417C90.3465 48.3994 91.1775 45.3467 91.1775 41.6833C91.1775 38.2913 90.6178 35.4421 89.4985 33.1355C88.3791 30.8289 86.8018 28.9803 84.7666 27.5896C82.7314 26.1989 80.2892 25.1983 77.44 24.5877C74.5907 23.9772 71.4362 23.6719 67.9763 23.6719H33.7852ZM49.7614 83.9135V63.9686H67.1623C70.6221 63.9686 73.4035 64.7657 75.5065 66.36C77.6096 67.9542 78.6611 70.6169 78.6611 74.3481C78.6611 76.2476 78.3388 77.8079 77.6944 79.029C77.0499 80.2501 76.1849 81.2168 75.0995 81.9292C74.0141 82.6415 72.759 83.1503 71.3344 83.4556C69.9098 83.7608 68.4173 83.9135 66.857 83.9135H49.7614Z" fill="white"/>
</svg>
