<svg width="106" height="120" viewBox="0 0 106 120" fill="none" xmlns="http://www.w3.org/2000/svg">
<path d="M9.62572 108.004L0 0H105.806L96.1671 107.987L52.8386 120L9.62572 108.004Z" fill="#1572B6"/>
<path d="M52.9028 110.82L87.9171 101.113L96.1543 8.83276H52.9028V110.82Z" fill="#33A9DC"/>
<path d="M52.9028 47.9613H70.4314L71.64 34.397H52.9028V21.1499H52.95H86.1171L85.8 24.7028L82.5471 61.2085H52.9028V47.9613Z" fill="white"/>
<path d="M52.9842 82.3629L52.9243 82.3801L38.1728 78.3944L37.23 67.8301H30.06H23.9314L25.7871 88.6287L52.92 96.1629L52.9842 96.1458V82.3629Z" fill="#EBEBEB"/>
<path d="M69.3042 60.6472L67.7099 78.3858L52.937 82.3715V96.1544L80.0913 88.6287L80.2927 86.3915L82.5942 60.6472H69.3042Z" fill="white"/>
<path d="M52.9499 21.1499V29.3785V34.3628V34.397H20.9956H20.9528L20.6871 31.4185L20.0828 24.7028L19.7656 21.1499H52.9499Z" fill="#EBEBEB"/>
<path d="M52.9028 47.9614V56.19V61.1743V61.2086H38.3785H38.3357L38.07 58.23L37.47 51.5143L37.1528 47.9614H52.9028Z" fill="#EBEBEB"/>
</svg>
