<svg width="120" height="120" viewBox="0 0 120 120" fill="none" xmlns="http://www.w3.org/2000/svg">
<mask id="mask0_107_251" style="mask-type:alpha" maskUnits="userSpaceOnUse" x="0" y="0" width="120" height="120">
<rect width="120" height="120" fill="#D9D9D9"/>
</mask>
<g mask="url(#mask0_107_251)">
<path d="M83.2778 59.5C83.2778 72.6319 72.6319 83.2778 59.5 83.2778C46.3679 83.2778 35.7222 72.6319 35.7222 59.5C35.7222 46.3679 46.3679 35.7222 59.5 35.7222C72.6319 35.7222 83.2778 46.3679 83.2778 59.5ZM83.2778 59.5V68.4167C83.2778 76.6242 89.9314 83.2778 98.1389 83.2778C106.346 83.2778 113 76.6242 113 68.4167V59.5C113 29.9528 89.0475 6 59.5 6C29.9528 6 6 29.9528 6 59.5C6 89.0475 29.9528 113 59.5 113H83.2778" stroke="black" stroke-width="9" stroke-linecap="round" stroke-linejoin="round"/>
</g>
</svg>
