<svg width="120" height="120" viewBox="0 0 120 120" fill="none" xmlns="http://www.w3.org/2000/svg">
<path d="M2.50869 66.0566C-0.836229 62.7116 -0.836229 57.2885 2.50869 53.9435L53.9435 2.50869C57.2885 -0.836229 62.7116 -0.836229 66.0566 2.50869L117.491 53.9435C120.836 57.2885 120.836 62.7116 117.491 66.0566L66.0566 117.491C62.7116 120.836 57.2885 120.836 53.9435 117.491L2.50869 66.0566Z" fill="#EE513B"/>
<path d="M43.4953 13.1208L38.2869 18.3295L51.7393 31.7819C51.195 32.9495 50.8912 34.2515 50.8912 35.6246C50.8912 39.5229 53.3404 42.8491 56.784 44.1481V77.0564C53.3404 78.3554 50.8912 81.6815 50.8912 85.5798C50.8912 90.6096 54.9686 94.687 59.9983 94.687C65.028 94.687 69.1055 90.6096 69.1055 85.5798C69.1055 82.0458 67.0925 78.9815 64.1503 77.4721V44.1931L77.0096 57.0524C76.4919 58.1962 76.2039 59.4661 76.2039 60.8032C76.2039 65.833 80.2813 69.9104 85.311 69.9104C90.3408 69.9104 94.4182 65.833 94.4182 60.8032C94.4182 55.7735 90.3408 51.6961 85.311 51.6961C84.3335 51.6961 83.3923 51.8499 82.5095 52.1349L68.6987 38.3242C68.9632 37.4714 69.1055 36.5645 69.1055 35.6246C69.1055 30.5948 65.028 26.5174 59.9983 26.5174C59.0585 26.5174 58.152 26.6598 57.2987 26.9242L43.4953 13.1208Z" fill="white"/>
</svg>
