<svg width="120" height="120" viewBox="0 0 120 120" fill="none" xmlns="http://www.w3.org/2000/svg">
<path fill-rule="evenodd" clip-rule="evenodd" d="M59.9999 0C93.1379 0 120 27.5395 120 61.5175C120 88.6915 102.828 111.744 79.0019 119.886C75.9599 120.492 74.8799 118.57 74.8799 116.932C74.8799 114.904 74.9519 108.281 74.9519 100.049C74.9519 94.3127 73.0319 90.569 70.8779 88.661C84.2399 87.137 98.2799 81.9345 98.2799 58.3066C98.2799 51.5866 95.9519 46.1029 92.0999 41.7949C92.7239 40.2409 94.7819 33.9837 91.5119 25.5117C91.5119 25.5117 86.4839 23.8633 75.0299 31.8193C70.2359 30.4573 65.0999 29.772 59.9999 29.748C54.8999 29.772 49.77 30.4573 44.982 31.8193C33.516 23.8633 28.476 25.5117 28.476 25.5117C25.218 33.9837 27.276 40.2409 27.894 41.7949C24.06 46.1029 21.714 51.5866 21.714 58.3066C21.714 81.8745 35.724 87.1568 49.05 88.7108C47.334 90.2468 45.78 92.9565 45.24 96.9345C41.82 98.5065 33.1319 101.227 27.78 91.8251C27.78 91.8251 24.606 85.9143 18.582 85.4823C18.582 85.4823 12.732 85.4046 18.174 89.2206C18.174 89.2206 22.104 91.1106 24.834 98.2206C24.834 98.2206 28.356 109.2 45.048 105.48C45.078 110.622 45.132 115.468 45.132 116.932C45.132 118.558 44.0279 120.461 41.0339 119.891C17.19 111.761 0 88.6975 0 61.5175C0 27.5395 26.868 0 59.9999 0Z" fill="white"/>
</svg>
