<svg width="107" height="120" viewBox="0 0 107 120" fill="none" xmlns="http://www.w3.org/2000/svg">
<path fill-rule="evenodd" clip-rule="evenodd" d="M63.6521 13.7518L88.3268 27.9982C89.0216 27.2622 89.8332 26.6124 90.7539 26.0776C95.8713 23.1359 102.398 24.8825 105.371 30C108.313 35.1175 106.566 41.6445 101.448 44.617C100.535 45.1422 99.5753 45.5179 98.5986 45.7517V74.2556C99.5647 74.49 100.514 74.8633 101.418 75.383C106.566 78.3555 108.313 84.8825 105.34 90C102.398 95.1175 95.8407 96.8641 90.7232 93.9224C89.7044 93.3367 88.8192 92.6077 88.0779 91.7753L63.5537 105.935C63.9043 106.994 64.094 108.127 64.094 109.305C64.094 115.189 59.3136 120 53.3994 120C47.4852 120 42.7048 115.22 42.7048 109.305C42.7048 108.254 42.8559 107.239 43.1375 106.28L18.4693 92.037C17.7819 92.7585 16.9816 93.3961 16.0756 93.9224C10.9275 96.8641 4.40043 95.1175 1.45865 90C-1.48313 84.8825 0.263555 78.3555 5.38102 75.383C6.28584 74.8629 7.23472 74.4893 8.20022 74.2551V45.7517C7.22355 45.5179 6.26401 45.1422 5.35038 44.617C0.232911 41.6752 -1.51377 35.1175 1.42801 30C4.36979 24.8825 10.9275 23.1359 16.045 26.0776C16.9606 26.6095 17.7684 27.2551 18.4607 27.9862L43.142 13.7359C42.8575 12.7722 42.7048 11.7515 42.7048 10.6946C42.7048 4.78039 47.4852 0 53.3994 0C59.3136 0 64.094 4.78039 64.094 10.6946C64.094 11.7573 63.9396 12.7834 63.6521 13.7518ZM61.0813 18.1411L85.8148 32.4214C85.0502 35.1066 85.3308 38.084 86.8315 40.6946C88.3371 43.3137 90.7898 45.0498 93.5118 45.7264V74.266C93.3731 74.3 93.235 74.3368 93.0978 74.3764L60.7941 18.4264C60.8916 18.3331 60.9873 18.238 61.0813 18.1411ZM46.0115 18.4329L13.7084 74.3819C13.5687 74.3413 13.4282 74.3036 13.287 74.2687V45.7264C16.0091 45.0498 18.4618 43.3137 19.9673 40.6946C21.471 38.0789 21.7497 35.0949 20.9795 32.4055L45.706 18.1292C45.8058 18.2325 45.9077 18.3337 46.0115 18.4329ZM56.3876 20.9675L88.6834 76.9039C87.9606 77.593 87.3236 78.396 86.8008 79.3054C86.2811 80.2095 85.9078 81.1585 85.6734 82.1246H21.126C20.8917 81.1591 20.5181 80.2102 19.998 79.3054C19.4731 78.4018 18.8374 77.6033 18.1183 76.9171L50.4202 20.9701C51.3656 21.243 52.3652 21.3892 53.3994 21.3892C54.4369 21.3892 55.4395 21.2421 56.3876 20.9675ZM61.3084 102.1L85.8813 87.9129C85.8076 87.6814 85.7417 87.4474 85.6838 87.2114H21.1123C21.078 87.3501 21.041 87.488 21.0013 87.6252L45.6948 101.882C47.6391 99.8646 50.3706 98.6108 53.3994 98.6108C56.5359 98.6108 59.3536 99.9554 61.3084 102.1Z" fill="#E535AB"/>
</svg>
