<svg width="109" height="120" viewBox="0 0 109 120" fill="none" xmlns="http://www.w3.org/2000/svg">
<path fill-rule="evenodd" clip-rule="evenodd" d="M97.2128 0H10.8084C4.84562 0 0 4.83234 0 10.8084V109.202C0 115.168 4.84562 120 10.8084 120H97.2128C103.177 120 108.008 115.168 108.008 109.202V10.8084C108.008 4.83234 103.177 0 97.2128 0ZM102.007 109.202C102.007 111.851 99.8606 113.996 97.2128 113.996H10.8084C8.16235 113.996 6.001 111.851 6.001 109.202V10.8084C6.001 8.14907 8.16235 6.001 10.8084 6.001H97.2128C99.8606 6.001 102.007 8.14907 102.007 10.8084V109.202ZM27.0018 102.007L40.5111 90.0015L27.0018 77.9995V102.007ZM75.7887 53.3614C73.3601 50.9195 68.9261 48.0028 61.5108 48.0028C53.375 48.0028 44.9952 50.1227 39.0058 52.0632V18.0061H27.0022V70.043L35.4849 66.2C35.626 66.137 49.3013 60.0065 61.5108 60.0065C67.6014 60.0065 68.951 63.3597 69.0158 66.1619V102.007H81.0061V66.0075C81.0194 65.2372 80.9431 58.5789 75.7887 53.3614ZM60.0065 37.502H72.0101C77.4334 31.3582 80.1974 24.8177 81.0075 18.005H69.0154C67.6791 24.8044 64.7226 31.3068 60.0065 37.502Z" fill="#6762A6"/>
</svg>
