<svg width="106" height="120" viewBox="0 0 106 120" fill="none" xmlns="http://www.w3.org/2000/svg">
<path d="M9.63 108.004L0 0H105.814L96.1714 107.987L52.8429 120L9.63 108.004Z" fill="#E44F26"/>
<path d="M52.9072 110.82L87.9215 101.113L96.1586 8.83276H52.9072V110.82Z" fill="#F1662A"/>
<path d="M52.9072 48.8871H35.3786L34.17 35.3228H52.9072V22.0757H52.86H19.6929L20.01 25.6328L23.2629 62.1343H52.9072V48.8871Z" fill="#EBEBEB"/>
<path d="M52.9071 83.2886L52.8471 83.3057L38.0957 79.3243L37.1528 68.76H29.9828H23.8542L25.71 89.5543L52.8471 97.0886L52.9071 97.0714V83.2886Z" fill="#EBEBEB"/>
<path d="M52.8601 48.8872V62.1343H69.1715L67.6372 79.3158L52.8601 83.3015V97.0843L80.0187 89.5543L80.2158 87.3172L83.3272 52.4444L83.653 48.8872H80.083H52.8601Z" fill="white"/>
<path d="M52.8601 22.0757V30.3043V35.2928V35.3228H84.8144H84.8572L85.123 32.3485L85.7273 25.6328L86.0444 22.0757H52.8601Z" fill="white"/>
</svg>
