<svg width="120" height="120" viewBox="0 0 120 120" fill="none" xmlns="http://www.w3.org/2000/svg">
<path d="M60 120C93.1371 120 120 93.1371 120 60C120 26.8629 93.1371 0 60 0C26.8629 0 0 26.8629 0 60C0 93.1371 26.8629 120 60 120Z" fill="#0769AD"/>
<path d="M88.5313 48.9475C93.9184 48.9475 98.8508 47.151 102.664 44.1711C98.7051 49.3877 92.1458 52.7983 84.7238 52.7983C72.633 52.7983 62.8315 43.7473 62.8315 32.5824C62.8315 26.3918 65.8448 20.8511 70.5908 17.1428C68.1004 20.4243 66.639 24.4204 66.639 28.7317C66.639 39.8965 76.4404 48.9475 88.5313 48.9475Z" fill="#78CFF5"/>
<path d="M102.456 62.8226C96.648 67.3783 89.1292 70.1263 80.9165 70.1263C62.5175 70.1263 47.6019 56.3344 47.6019 39.321C47.6019 32.7224 49.8459 26.6082 53.6662 21.5955C46.4627 27.2461 41.8907 35.6777 41.8907 45.0969C41.8907 62.1103 56.8063 75.9026 75.2053 75.9026C86.4686 75.9026 96.426 70.7344 102.456 62.8226Z" fill="#78CFF5"/>
<path d="M102.857 80.4434C94.581 88.3411 83.1158 93.2307 70.4464 93.2307C45.213 93.2307 24.7576 73.8357 24.7576 49.9107C24.7576 42.3292 26.8115 35.203 30.4205 29.0044C22.2138 36.8358 17.1428 47.6251 17.1428 59.5372C17.1428 83.4622 37.5981 102.857 62.8315 102.857C80.0687 102.857 95.0768 93.8062 102.857 80.4434Z" fill="#78CFF5"/>
</svg>
