<svg width="332" height="75" viewBox="0 0 332 75" fill="none" xmlns="http://www.w3.org/2000/svg">
<path d="M0.765368 0C0.669697 0 0.574024 -1.46049e-06 0.478353 0.0956199C0.382682 0.0956199 0.287015 0.191242 0.287015 0.286863C0.191344 0.382485 0.191347 0.478107 0.0956765 0.478107C0.0956765 0.573728 0 0.669349 0 0.76497V43.4121C0 48.5757 1.43507 52.3049 4.40085 54.5998C7.55798 57.1816 12.6285 57.7553 18.4644 56.4166C18.6558 56.4166 18.7515 56.321 18.8471 56.1297C18.9428 56.0341 19.0385 55.8429 19.0385 55.6516L18.9428 48.3844C18.9428 48.2888 18.9428 48.1932 18.8471 48.0976C18.8471 48.0019 18.7514 47.9063 18.6558 47.8107C18.5601 47.7151 18.4644 47.7151 18.3688 47.7151C18.2731 47.7151 18.1774 47.7151 18.0818 47.7151C15.7857 48.1932 14.0636 47.9063 12.8199 46.9501C11.4805 45.8983 10.9065 43.9858 10.9065 41.2128V0.76497C10.9065 0.573728 10.8108 0.382485 10.7151 0.286863C10.6195 0.191242 10.4281 0.0956199 10.2368 0.0956199H0.765368V0Z" fill="#1B1A21"/>
<path d="M42.0201 12.1155C35.7306 12.1155 30.5846 14.3129 26.6775 18.6123C22.7704 22.9117 20.7692 28.262 20.7692 34.5677C20.7692 41.0645 22.7704 46.4148 26.6775 50.7142C30.5846 54.918 35.8259 57.1155 42.2107 57.1155C47.0707 57.1155 51.359 55.7779 54.9802 53.1027C58.5062 50.5231 61.1744 46.797 62.4133 42.4976C62.4133 42.4021 62.4133 42.3066 62.4133 42.211C62.4133 42.1155 62.318 42.0199 62.318 41.9244C62.2227 41.8289 62.2227 41.7333 62.1274 41.7333C62.0321 41.7333 61.9368 41.6378 61.8415 41.6378H52.2167C52.1214 41.6378 51.9308 41.6378 51.8355 41.7333C51.7402 41.8288 51.6449 41.9244 51.6449 42.0199C50.9778 43.7397 49.739 45.1728 48.119 46.0327C46.4037 47.0836 44.4978 47.5613 42.4966 47.5613C39.3518 47.5613 36.8741 46.7015 34.9682 44.7906C33.1576 42.9753 32.0141 40.6824 31.7282 38.1983V38.0072H62.6992C62.8898 38.0072 62.9851 37.9117 63.1756 37.8161C63.2709 37.7206 63.3662 37.5295 63.3662 37.3384L63.4615 34.3766C63.4615 28.0709 61.4603 22.7206 57.6485 18.5168C53.3602 14.2174 48.3096 12.1155 42.0201 12.1155ZM52.2167 29.5996H31.6329L31.7282 29.4085C32.2047 27.211 33.3482 25.2046 35.0635 23.676C36.9694 21.9562 39.2565 21.1919 42.1154 21.1919C44.9742 21.1919 47.3566 22.0518 49.1672 23.676C50.7873 25.2046 51.9308 27.211 52.312 29.4085L52.2167 29.5996Z" fill="#1B1A21"/>
<path d="M265.616 46.9043C259.014 46.9043 253.752 41.5527 253.752 35.0543C253.752 28.556 259.11 23.2044 265.616 23.2044C272.122 23.2044 277.479 28.556 277.479 35.0543C277.479 41.5527 272.122 46.9043 265.616 46.9043ZM265.616 12.6924C256.526 12.6924 248.585 18.044 244.95 26.4536C243.227 30.4673 242.845 34.9588 243.706 39.3547C244.567 43.6551 246.672 47.5732 249.829 50.7268C252.986 53.8804 256.909 55.8873 261.215 56.8429C265.52 57.703 270.017 57.2252 274.131 55.6006C278.245 53.8804 281.689 51.0135 284.177 47.3821C286.569 43.6551 287.908 39.4503 287.908 35.0543C287.813 22.8222 278.149 12.6924 265.616 12.6924ZM326.753 17.375C323.978 14.2214 319.96 12.6924 314.889 12.6924C311.732 12.6924 308.861 13.3613 306.565 14.6037C305.321 15.3682 304.173 16.3238 303.121 17.375L302.834 17.6617V14.2214C302.834 14.1258 302.738 13.9347 302.642 13.8392C302.547 13.7436 302.355 13.648 302.164 13.648H293.362C293.266 13.648 293.075 13.7436 292.979 13.8392C292.883 13.9347 292.788 14.1258 292.788 14.2214V55.6006C292.788 55.6962 292.788 55.7917 292.883 55.8873C292.883 55.9829 292.979 56.0784 293.075 56.0784C293.17 56.174 293.362 56.2695 293.457 56.2695H303.025C303.121 56.2695 303.408 56.174 303.408 56.0784C303.599 55.9829 303.599 55.7917 303.599 55.6006V31.614C303.599 28.7471 304.46 26.2625 305.991 24.6379C307.617 22.9177 309.818 22.0576 312.688 22.0576C315.272 22.0576 317.185 22.8222 318.429 24.3512C319.673 25.8802 320.342 28.0782 320.342 30.8495V55.6006C320.342 55.7917 320.342 55.9829 320.438 56.0784C320.629 56.174 320.821 56.2695 321.012 56.2695H330.388C330.58 56.2695 330.771 56.174 330.867 56.0784L331.058 55.8873C331.058 55.7917 331.154 55.6962 331.154 55.6006V29.6072C330.962 24.5423 329.527 20.4331 326.753 17.375ZM228.015 34.1943C228.015 40.9793 223.614 46.0442 217.108 46.0442C210.793 46.0442 206.201 41.1704 206.201 34.1943C206.201 27.6004 210.123 22.3443 217.108 22.3443C223.805 22.4399 228.015 27.4092 228.015 34.1943ZM237.678 13.648H228.876C228.78 13.648 228.685 13.648 228.589 13.7436C228.493 13.7436 228.398 13.8391 228.398 13.9347C228.302 14.0303 228.206 14.2214 228.206 14.317V18.2351L227.919 17.9484C224.953 14.5081 220.648 12.7879 215.099 12.7879C203.043 12.7879 195.389 22.1532 195.389 34.2898C195.389 40.3104 197.207 45.4708 200.747 49.4845C204.287 53.5938 209.167 55.6962 215.099 55.6962C220.265 55.6962 224.379 54.0716 227.249 50.918L227.537 50.5357V55.0272C227.537 60.6655 222.944 65.0614 217.682 65.0614C212.324 65.0614 209.741 61.9078 208.497 59.6143C208.21 59.1365 208.114 59.0409 207.827 59.1365C206.87 59.6143 199.599 63.4368 199.216 63.628C199.025 63.7235 199.025 64.0102 199.121 64.2014C202.087 70.7953 208.688 75.0001 217.778 75.0001C229.163 75.0001 238.348 66.9727 238.348 53.6893V14.2214C238.348 14.1258 238.348 13.9347 238.157 13.8392C237.965 13.7436 237.87 13.648 237.678 13.648ZM179.985 34.9588C179.985 42.2216 175.967 47.5732 168.983 47.5732C161.998 47.5732 157.98 41.935 157.98 34.9588C157.98 28.1737 161.903 22.4399 168.983 22.4399C175.776 22.4399 179.985 27.5048 179.985 34.9588ZM189.744 13.7436H180.942C180.847 13.7436 180.655 13.8391 180.464 13.9347C180.368 14.0303 180.368 14.2214 180.368 14.317V18.2351L179.985 17.9484C177.115 14.5081 172.714 12.7879 166.973 12.7879C154.631 12.7879 147.36 22.3443 147.36 34.9588C147.36 47.5732 154.631 57.2252 166.973 57.2252C172.618 57.2252 177.115 55.505 179.985 52.0647L180.368 51.6825V55.6006C180.368 55.7917 180.464 55.8873 180.464 56.0784C180.655 56.174 180.847 56.2695 180.942 56.2695H189.744C189.936 56.2695 190.127 56.174 190.127 56.0784C190.318 55.9829 190.318 55.7917 190.318 55.6006V14.317C190.318 14.2214 190.318 14.0303 190.127 13.9347C190.031 13.9347 189.936 13.7436 189.744 13.7436ZM147.743 14.2214C147.743 14.1258 147.647 14.1258 147.647 13.9347C147.551 13.8391 147.456 13.7436 147.36 13.7436C147.264 13.648 147.168 13.648 147.073 13.648H137.41C137.314 13.648 137.218 13.648 137.122 13.7436C136.931 13.8391 136.931 13.9347 136.835 14.1258L128.32 41.3616L119.709 14.2214C119.614 14.0303 119.614 13.9347 119.422 13.8392C119.327 13.8392 119.231 13.7436 119.04 13.7436H109.95C109.759 13.7436 109.663 13.8392 109.568 13.8392C109.472 13.9347 109.376 14.0303 109.376 14.2214L100.479 41.7438L91.772 14.1258C91.772 13.9347 91.6763 13.8391 91.5806 13.7436C91.4849 13.7436 91.2936 13.648 91.1979 13.648H81.3433C81.2476 13.648 81.1519 13.648 80.9606 13.7436C80.8649 13.7436 80.8649 13.8391 80.8649 13.9347C80.7692 14.0303 80.7692 14.1258 80.7692 14.2214V14.6037L95.2163 55.8873C95.2163 55.9829 95.312 56.0784 95.4077 56.174C95.599 56.2695 95.6947 56.2695 95.7904 56.2695H104.593H104.784C104.88 56.2695 104.88 56.174 104.975 56.174C105.071 56.174 105.071 56.0784 105.071 56.0784C105.071 56.0784 105.167 55.9829 105.167 55.8873L114.16 28.9383L123.058 55.7917C123.058 55.8873 123.154 56.0784 123.249 56.174C123.345 56.174 123.536 56.2695 123.632 56.2695H132.53C132.721 56.2695 132.913 56.174 132.913 56.174C133.008 56.0784 133.104 55.9829 133.2 55.7917L147.743 14.6037V14.2214Z" fill="#1B1A21"/>
</svg>
