<svg width="511" height="131" viewBox="0 0 511 131" fill="none" xmlns="http://www.w3.org/2000/svg">
<path d="M8.9 0.5H122.6C127.2 0.5 131 4.6 131 9.6V121.9C131 126.9 127.3 131 122.6 131H8.9C4.3 131 0.5 126.9 0.5 121.9V9.6C0.5 4.6 4.3 0.5 8.9 0.5Z" fill="#E60F05"/>
<path d="M92.6 83.9001C91.5 82.8001 90.2 82.1001 88.7 81.8001C87.2 81.5001 85.7 81.7001 84.3 82.2001C82.9 82.8001 81.7 83.7001 80.9 85.0001C80.1 86.2001 79.6 87.7001 79.6 89.2001C79.6 90.2001 79.8 91.2001 80.2 92.1001C80.6 93.0001 81.1 93.9001 81.8 94.6001C82.5 95.3001 83.3 95.9001 84.3 96.2001C85.2 96.6001 86.2 96.8001 87.2 96.8001C88.7 96.8001 90.2 96.4001 91.4 95.5001C92.6 94.7001 93.6 93.5001 94.2 92.1001C94.8 90.7001 94.9 89.2001 94.6 87.7001C94.4 86.3001 93.7 85.0001 92.6 83.9001ZM87.3 93.0001C85.3 93.0001 83.6 91.3001 83.6 89.3001C83.6 87.3001 85.3 85.6001 87.3 85.6001C89.3 85.6001 91.1 87.3001 91.1 89.3001C91.1 91.3001 89.3 93.0001 87.3 93.0001Z" fill="white"/>
<path d="M106 79.5H103.8C101.8 79.5 100.8 78.6 99.9 77.6C98.3 75.8 96.4 74.4 94.2 73.4C92 72.4 89.7 72 87.3 72H26.1C25.9 72 25.7 72.1 25.5 72.2C25.3 72.3 25.2 72.4 25 72.5C24.9 72.6 24.8 72.8 24.7 73C24.6 73.2 24.5 73.4 24.5 73.6V76.4V83.7C24.5 84.8 23.6 84.4 23.6 86.2V87.2C23.6 88.4 24.3 89.1 25.4 89.1H27.4C27.7 89.1 28.4 88.9 28.4 88.1C28.4 81.9 33.5 76.8 39.5 76.8C45.5 76.8 50.8 81.6 50.8 88.1C50.8 88.7 51.2 89 51.7 89H75C75.6 89 76 88.6 76 88C76 82.1 80.7 76.7 87.3 76.7C93.5 76.7 98.5 81.8 98.5 88C98.5 88.4 98.7 89 99.5 89H106.1C107.1 89 108 88 108 87.1V81.5C107.8 80.2 107.2 79.5 106 79.5Z" fill="white"/>
<path d="M44.9 83.9001C43.8 82.8001 42.5 82.1001 41 81.8001C39.5 81.5001 38 81.7001 36.6 82.2001C35.2 82.8001 34 83.7001 33.2 85.0001C32.4 86.2001 31.9 87.7001 31.9 89.2001C31.9 90.2001 32.1 91.2001 32.5 92.1001C32.9 93.0001 33.4 93.9001 34.1 94.6001C34.8 95.3001 35.6 95.9001 36.6 96.2001C37.5 96.6001 38.5 96.8001 39.5 96.8001C41 96.8001 42.5 96.4001 43.7 95.5001C44.9 94.7001 45.9 93.5001 46.5 92.1001C47.1 90.7001 47.2 89.2001 46.9 87.7001C46.7 86.3001 46 85.0001 44.9 83.9001ZM39.6 93.0001C37.6 93.0001 35.9 91.3001 35.9 89.3001C35.9 87.3001 37.6 85.6001 39.6 85.6001C41.6 85.6001 43.4 87.3001 43.4 89.3001C43.4 91.3001 41.6 93.0001 39.6 93.0001Z" fill="white"/>
<path d="M24.9 66.3001C25 66.5001 25.2 66.6001 25.4 66.7001C25.6 66.8001 25.8 66.8001 26 66.8001H87.2C92.5 66.7001 97.7 68.8001 101.5 72.4001C102.1 73.0001 102.9 74.3001 104.1 74.3001H105.3C105.9 74.3001 106.1 74.0001 106.1 73.3001V64.6001C106.1 52.4001 98.7 42.6001 86.1 37.8001C73 32.6001 41.8 34.6001 29.2 37.9001C27.2 38.4001 24.5 39.4001 24.5 43.2001V63.2001L24.6 65.1001C24.5 65.6001 24.7 66.0001 24.9 66.3001ZM75.7 45.3001C75.7 44.7001 75.9 44.3001 76.7 44.3001H80.6C90 44.3001 96.4 50.7001 99.9 60.2001C100.1 60.7001 100 61.5001 99 61.5001H76.7C76.1 61.5001 75.7 60.9001 75.7 60.5001V45.3001ZM52.9 45.3001C52.9 45.2001 52.9 45.0001 53 44.9001C53 44.8001 53.1 44.7001 53.2 44.6001C53.3 44.5001 53.4 44.4001 53.5 44.4001C53.6 44.4001 53.7 44.3001 53.9 44.3001H70.4C71 44.3001 71.4 44.7001 71.4 45.3001V60.4001C71.4 60.9001 71 61.4001 70.4 61.4001H53.8C53.3 61.4001 52.8 61.2001 52.8 60.4001V45.3001H52.9ZM29.8 45.3001C29.8 45.1001 29.8 44.3001 30.7 44.3001H47.6C48.2 44.3001 48.6 44.7001 48.6 45.2001V60.5001C48.6 60.8001 48.4 61.4001 47.6 61.4001H30.7C30 61.4001 29.8 60.8001 29.8 60.4001V45.3001Z" fill="white"/>
<path d="M165.2 35.8999C165.1 35.8999 165 35.8999 164.9 35.9999C164.8 35.9999 164.7 36.0999 164.7 36.1999C164.6 36.2999 164.6 36.3999 164.5 36.3999C164.5 36.4999 164.4 36.5999 164.4 36.6999V81.2999C164.4 86.6999 165.9 90.5999 169 92.9999C172.3 95.6999 177.6 96.2999 183.7 94.8999C183.9 94.8999 184 94.7999 184.1 94.5999C184.2 94.4999 184.3 94.2999 184.3 94.0999L184.2 86.4999C184.2 86.3999 184.2 86.2999 184.1 86.1999C184.1 86.0999 184 85.9999 183.9 85.8999C183.8 85.7999 183.7 85.7999 183.6 85.7999C183.5 85.7999 183.4 85.7999 183.3 85.7999C180.9 86.2999 179.1 85.9999 177.8 84.9999C176.4 83.8999 175.8 81.8999 175.8 78.9999V36.6999C175.8 36.4999 175.7 36.2999 175.6 36.1999C175.5 36.0999 175.3 35.9999 175.1 35.9999H165.2V35.8999Z" fill="#1B1A21"/>
<path d="M208.3 48.7C201.7 48.7 196.3 51 192.2 55.5C188.1 60 186 65.5999 186 72.1999C186 78.9999 188.1 84.5999 192.2 89.0999C196.3 93.4999 201.8 95.8 208.5 95.8C213.6 95.8 218.1 94.3999 221.9 91.5999C225.6 88.8999 228.4 85 229.7 80.5C229.7 80.4 229.7 80.2999 229.7 80.1999C229.7 80.0999 229.6 80 229.6 79.9C229.5 79.8 229.5 79.6999 229.4 79.6999C229.3 79.6999 229.2 79.5999 229.1 79.5999H219C218.9 79.5999 218.7 79.5999 218.6 79.6999C218.5 79.7999 218.4 79.9 218.4 80C217.7 81.8 216.4 83.2999 214.7 84.1999C212.9 85.2999 210.9 85.8 208.8 85.8C205.5 85.8 202.9 84.9 200.9 82.9C199 81 197.8 78.6 197.5 76V75.8H230C230.2 75.8 230.3 75.6999 230.5 75.5999C230.6 75.4999 230.7 75.2999 230.7 75.0999L230.8 72C230.8 65.4 228.7 59.8 224.7 55.4C220.2 50.9 214.9 48.7 208.3 48.7ZM219 67H197.4L197.5 66.8C198 64.5 199.2 62.3999 201 60.7999C203 58.9999 205.4 58.2 208.4 58.2C211.4 58.2 213.9 59.0999 215.8 60.7999C217.5 62.3999 218.7 64.5 219.1 66.8L219 67Z" fill="#1B1A21"/>
<path d="M441.7 84.8C434.8 84.8 429.3 79.2 429.3 72.4C429.3 65.6 434.9 60 441.7 60C448.5 60 454.1 65.6 454.1 72.4C454.1 79.2 448.5 84.8 441.7 84.8ZM441.7 49C432.2 49 423.9 54.6 420.1 63.4C418.3 67.6 417.9 72.3 418.8 76.9C419.7 81.4 421.9 85.5 425.2 88.8C428.5 92.1 432.6 94.2 437.1 95.2C441.6 96.1 446.3 95.6 450.6 93.9C454.9 92.1 458.5 89.1 461.1 85.3C463.6 81.4 465 77 465 72.4C464.9 59.6 454.8 49 441.7 49ZM505.6 53.9C502.7 50.6 498.5 49 493.2 49C489.9 49 486.9 49.7 484.5 51C483.2 51.8 482 52.8 480.9 53.9L480.6 54.2V50.6C480.6 50.5 480.5 50.3 480.4 50.2C480.3 50.1 480.1 50 479.9 50H470.7C470.6 50 470.4 50.1 470.3 50.2C470.2 50.3 470.1 50.5 470.1 50.6V93.9C470.1 94 470.1 94.1 470.2 94.2C470.2 94.3 470.3 94.4 470.4 94.4C470.5 94.5 470.7 94.6 470.8 94.6H480.8C480.9 94.6 481.2 94.5 481.2 94.4C481.4 94.3 481.4 94.1 481.4 93.9V68.8C481.4 65.8 482.3 63.2 483.9 61.5C485.6 59.7 487.9 58.8 490.9 58.8C493.6 58.8 495.6 59.6 496.9 61.2C498.2 62.8 498.9 65.1 498.9 68V93.9C498.9 94.1 498.9 94.3 499 94.4C499.2 94.5 499.4 94.6 499.6 94.6H509.4C509.6 94.6 509.8 94.5 509.9 94.4L510.1 94.2C510.1 94.1 510.2 94 510.2 93.9V66.7C510 61.4 508.5 57.1 505.6 53.9ZM402.4 71.5C402.4 78.6 397.8 83.9 391 83.9C384.4 83.9 379.6 78.8 379.6 71.5C379.6 64.6 383.7 59.1 391 59.1C398 59.2 402.4 64.4 402.4 71.5ZM412.5 50H403.3C403.2 50 403.1 50 403 50.1C402.9 50.1 402.8 50.2 402.8 50.3C402.7 50.4 402.6 50.6 402.6 50.7V54.8L402.3 54.5C399.2 50.9 394.7 49.1 388.9 49.1C376.3 49.1 368.3 58.9 368.3 71.6C368.3 77.9 370.2 83.3 373.9 87.5C377.6 91.8 382.7 94 388.9 94C394.3 94 398.6 92.3 401.6 89L401.9 88.6V93.3C401.9 99.2 397.1 103.8 391.6 103.8C386 103.8 383.3 100.5 382 98.1C381.7 97.6 381.6 97.5 381.3 97.6C380.3 98.1 372.7 102.1 372.3 102.3C372.1 102.4 372.1 102.7 372.2 102.9C375.3 109.8 382.2 114.2 391.7 114.2C403.6 114.2 413.2 105.8 413.2 91.9V50.6C413.2 50.5 413.2 50.3 413 50.2C412.8 50.1 412.7 50 412.5 50ZM352.2 72.3C352.2 79.9 348 85.5 340.7 85.5C333.4 85.5 329.2 79.6 329.2 72.3C329.2 65.2 333.3 59.2 340.7 59.2C347.8 59.2 352.2 64.5 352.2 72.3ZM362.4 50.1H353.2C353.1 50.1 352.9 50.2 352.7 50.3C352.6 50.4 352.6 50.6 352.6 50.7V54.8L352.2 54.5C349.2 50.9 344.6 49.1 338.6 49.1C325.7 49.1 318.1 59.1 318.1 72.3C318.1 85.5 325.7 95.6 338.6 95.6C344.5 95.6 349.2 93.8 352.2 90.2L352.6 89.8V93.9C352.6 94.1 352.7 94.2 352.7 94.4C352.9 94.5 353.1 94.6 353.2 94.6H362.4C362.6 94.6 362.8 94.5 362.8 94.4C363 94.3 363 94.1 363 93.9V50.7C363 50.6 363 50.4 362.8 50.3C362.7 50.3 362.6 50.1 362.4 50.1ZM318.5 50.6C318.5 50.5 318.4 50.5 318.4 50.3C318.3 50.2 318.2 50.1 318.1 50.1C318 50 317.9 50 317.8 50H307.7C307.6 50 307.5 50 307.4 50.1C307.2 50.2 307.2 50.3 307.1 50.5L298.2 79L289.2 50.6C289.1 50.4 289.1 50.3 288.9 50.2C288.8 50.2 288.7 50.1 288.5 50.1H279C278.8 50.1 278.7 50.2 278.6 50.2C278.5 50.3 278.4 50.4 278.4 50.6L269.1 79.4L260 50.5C260 50.3 259.9 50.2 259.8 50.1C259.7 50.1 259.5 50 259.4 50H249.1C249 50 248.9 50 248.7 50.1C248.6 50.1 248.6 50.2 248.6 50.3C248.5 50.4 248.5 50.5 248.5 50.6V51L263.6 94.2C263.6 94.3 263.7 94.4 263.8 94.5C264 94.6 264.1 94.6 264.2 94.6H273.4H273.6C273.7 94.6 273.7 94.5 273.8 94.5C273.9 94.5 273.9 94.4 273.9 94.4C273.9 94.4 274 94.3 274 94.2L283.4 66L292.7 94.1C292.7 94.2 292.8 94.4 292.9 94.5C293 94.5 293.2 94.6 293.3 94.6H302.6C302.8 94.6 303 94.5 303 94.5C303.1 94.4 303.2 94.3 303.3 94.1L318.5 51V50.6Z" fill="#1B1A21"/>
</svg>
