<svg width="126" height="120" viewBox="0 0 126 120" fill="none" xmlns="http://www.w3.org/2000/svg">
<path fill-rule="evenodd" clip-rule="evenodd" d="M28.4999 120V39.0322H1.59078V120H28.4999V120ZM15.0482 27.9815C24.429 27.9815 30.2725 21.7589 30.2725 13.9893C30.0951 6.04693 24.429 0 15.2241 0C6.01769 0.00024568 0 6.04717 0 13.9895C0 21.7592 5.84031 27.9817 14.871 27.9817L15.0482 27.9815ZM43.393 120C43.393 120 43.746 46.6291 43.393 39.0324H70.3063V50.7745H70.1277C73.6664 45.2491 80.0418 37.1311 94.5581 37.1311C112.268 37.1311 125.542 48.7034 125.542 73.5736V120H98.6334V76.6846C98.6334 65.8008 94.7399 58.3738 84.9989 58.3738C77.5661 58.3738 73.1365 63.3808 71.1912 68.2207C70.4795 69.9434 70.3063 72.3631 70.3063 74.7831V120H43.393Z" fill="black"/>
</svg>
