<svg width="107" height="120" viewBox="0 0 107 120" fill="none" xmlns="http://www.w3.org/2000/svg">
<path d="M53.1488 119.777C51.4982 119.777 49.9577 119.337 48.5272 118.567L33.892 109.874C31.6912 108.663 32.7916 108.223 33.4518 108.003C36.4229 107.013 36.9731 106.793 40.0542 105.032C40.3843 104.812 40.8244 104.922 41.1545 105.142L52.3785 111.855C52.8187 112.075 53.3689 112.075 53.699 111.855L97.6045 86.4356C98.0447 86.2155 98.2647 85.7753 98.2647 85.2251V34.4972C98.2647 33.947 98.0447 33.5068 97.6045 33.2868L53.699 7.97782C53.2588 7.75774 52.7086 7.75774 52.3785 7.97782L8.47299 33.2868C8.03284 33.5068 7.81276 34.057 7.81276 34.4972V85.2251C7.81276 85.6653 8.03284 86.2155 8.47299 86.4356L20.4672 93.368C26.9595 96.6692 31.031 92.8178 31.031 88.9664V38.8988C31.031 38.2385 31.5812 37.5783 32.3514 37.5783H37.9634C38.6237 37.5783 39.2839 38.1285 39.2839 38.8988V88.9664C39.2839 97.6595 34.5522 102.721 26.2993 102.721C23.7684 102.721 21.7877 102.721 16.1757 99.9703L4.62163 93.368C1.76062 91.7174 0 88.6363 0 85.3352V34.6072C0 31.3061 1.76062 28.225 4.62163 26.5744L48.5272 1.15541C51.2781 -0.385136 55.0194 -0.385136 57.7704 1.15541L101.676 26.5744C104.537 28.225 106.298 31.3061 106.298 34.6072V85.3352C106.298 88.6363 104.537 91.7174 101.676 93.368L57.7704 118.787C56.3399 119.447 54.6893 119.777 53.1488 119.777ZM66.6836 84.895C47.4268 84.895 43.4654 76.0919 43.4654 68.6093C43.4654 67.949 44.0156 67.2888 44.7858 67.2888H50.5079C51.1681 67.2888 51.7183 67.7289 51.7183 68.3892C52.5986 74.2212 55.1295 77.0823 66.7936 77.0823C76.0369 77.0823 79.9983 74.9915 79.9983 70.0398C79.9983 67.1787 78.8979 65.088 64.4828 63.6575C52.4886 62.4471 45.0059 59.8061 45.0059 50.2328C45.0059 41.3196 52.4886 36.0377 65.033 36.0377C79.118 36.0377 86.0504 40.8795 86.9307 51.4432C86.9307 51.7733 86.8207 52.1034 86.6006 52.4335C86.3805 52.6536 86.0504 52.8737 85.7203 52.8737H79.9983C79.4481 52.8737 78.8979 52.4335 78.7878 51.8833C77.4674 45.8312 74.0562 43.8505 65.033 43.8505C54.9094 43.8505 53.699 47.3717 53.699 50.0127C53.699 53.2038 55.1295 54.1942 68.7743 55.9548C82.3091 57.7154 88.6914 60.2463 88.6914 69.7096C88.5813 79.3931 80.6585 84.895 66.6836 84.895Z" fill="#539E43"/>
</svg>
