<svg width="207" height="75" viewBox="0 0 207 75" fill="none" xmlns="http://www.w3.org/2000/svg">
<path d="M6.25402 35.0856V59.673H0V18.8005H6.04202V25.1869H6.57201C7.52602 23.1113 8.97466 21.4437 10.9181 20.1842C12.8614 18.907 15.3701 18.2683 18.4441 18.2683C21.2001 18.2683 23.6115 18.8361 25.6786 19.9713C27.7456 21.089 29.3532 22.792 30.5016 25.0804C31.6499 27.3511 32.2241 30.2249 32.2241 33.7019V59.673H25.97V34.1277C25.97 30.9168 25.1397 28.4156 23.4791 26.6237C21.8184 24.8144 19.5394 23.9096 16.642 23.9096C14.6457 23.9096 12.8614 24.3442 11.2891 25.2135C9.73436 26.0827 8.50652 27.3511 7.60557 29.0186C6.70448 30.6862 6.25402 32.7085 6.25402 35.0856ZM60.1883 60.5245C56.5136 60.5245 53.2894 59.6463 50.5158 57.8901C47.7597 56.1339 45.6043 53.6769 44.0497 50.5193C42.5127 47.3615 41.7442 43.6717 41.7442 39.4497C41.7442 35.192 42.5127 31.4756 44.0497 28.3002C45.6043 25.1248 47.7597 22.659 50.5158 20.9027C53.2894 19.1465 56.5136 18.2683 60.1883 18.2683C63.863 18.2683 67.0782 19.1465 69.8342 20.9027C72.608 22.659 74.7633 25.1248 76.3003 28.3002C77.855 31.4756 78.6323 35.192 78.6323 39.4497C78.6323 43.6717 77.855 47.3615 76.3003 50.5193C74.7633 53.6769 72.608 56.1339 69.8342 57.8901C67.0782 59.6463 63.863 60.5245 60.1883 60.5245ZM60.1883 54.8833C62.9796 54.8833 65.2763 54.1647 67.0782 52.7279C68.8802 51.2909 70.2141 49.4017 71.0798 47.06C71.9454 44.7184 72.3782 42.1815 72.3782 39.4497C72.3782 36.7177 71.9454 34.172 71.0798 31.8127C70.2141 29.4532 68.8802 27.5462 67.0782 26.0916C65.2763 24.6369 62.9796 23.9096 60.1883 23.9096C57.3969 23.9096 55.1002 24.6369 53.2982 26.0916C51.4963 27.5462 50.1624 29.4532 49.2967 31.8127C48.4311 34.172 47.9983 36.7177 47.9983 39.4497C47.9983 42.1815 48.4311 44.7184 49.2967 47.06C50.1624 49.4017 51.4963 51.2909 53.2982 52.7279C55.1002 54.1647 57.3969 54.8833 60.1883 54.8833ZM105.881 18.8005V24.1224H84.7869V18.8005H105.881ZM90.9349 9.00824H97.1889V47.9647C97.1889 49.7387 97.445 51.0692 97.9574 51.9562C98.4874 52.8254 99.1587 53.4109 99.9714 53.7125C100.802 53.9963 101.676 54.1381 102.595 54.1381C103.284 54.1381 103.849 54.1026 104.291 54.0317C104.733 53.943 105.086 53.8721 105.351 53.8188L106.623 59.4601C106.199 59.6197 105.607 59.7793 104.847 59.9391C104.088 60.1164 103.125 60.2051 101.959 60.2051C100.192 60.2051 98.461 59.8238 96.7649 59.0609C95.0866 58.2981 93.6909 57.1362 92.5779 55.5751C91.4825 54.0139 90.9349 52.0448 90.9349 49.6677V9.00824ZM115.288 59.673V18.8005H121.542V59.673H115.288ZM118.468 11.9884C117.249 11.9884 116.198 11.5716 115.315 10.7378C114.449 9.90409 114.017 8.90173 114.017 7.7309C114.017 6.56008 114.449 5.55785 115.315 4.72409C116.198 3.89033 117.249 3.47338 118.468 3.47338C119.687 3.47338 120.73 3.89033 121.596 4.72409C122.479 5.55785 122.92 6.56008 122.92 7.7309C122.92 8.90173 122.479 9.90409 121.596 10.7378C120.73 11.5716 119.687 11.9884 118.468 11.9884ZM151.123 18.8005V24.1224H129.182V18.8005H151.123ZM135.753 59.673V13.1592C135.753 10.8176 136.3 8.86627 137.396 7.30512C138.491 5.74411 139.914 4.57329 141.663 3.79265C143.412 3.01215 145.258 2.62183 147.201 2.62183C148.739 2.62183 149.993 2.746 150.964 2.99435C151.935 3.2427 152.66 3.47338 153.137 3.68627L151.336 9.11462C151.017 9.00824 150.575 8.8751 150.01 8.71547C149.462 8.55583 148.739 8.47595 147.838 8.47595C145.77 8.47595 144.277 8.99927 143.359 10.0459C142.458 11.0926 142.008 12.6271 142.008 14.6495V59.673H135.753ZM163.917 75.0001C162.856 75.0001 161.911 74.9115 161.081 74.734C160.251 74.5744 159.676 74.4146 159.358 74.255L160.948 68.7203C162.467 69.1105 163.81 69.2524 164.976 69.1459C166.142 69.0396 167.176 68.5162 168.077 67.576C168.995 66.6536 169.835 65.1546 170.594 63.0791L171.76 59.8859L156.707 18.8005H163.491L174.728 51.3708H175.152L186.388 18.8005H193.172L175.894 65.6335C175.117 67.7446 174.153 69.492 173.006 70.8757C171.857 72.2771 170.523 73.3149 169.004 73.989C167.503 74.6631 165.806 75.0001 163.917 75.0001Z" fill="black"/>
<path d="M201.752 9.99919C204.502 9.99919 206.731 7.76079 206.731 4.9996C206.731 2.2384 204.502 0 201.752 0C199.002 0 196.773 2.2384 196.773 4.9996C196.773 7.76079 199.002 9.99919 201.752 9.99919Z" fill="#FF0000"/>
</svg>
