<svg width="120" height="120" viewBox="0 0 120 120" fill="none" xmlns="http://www.w3.org/2000/svg">
<path d="M60 120C93.1371 120 120 93.1371 120 60C120 26.8629 93.1371 0 60 0C26.8629 0 0 26.8629 0 60C0 93.1371 26.8629 120 60 120Z" fill="#8892BF"/>
<path d="M53.3109 34.2856H60.5109L58.476 45.1036H64.9457C68.4939 45.1795 71.1369 45.9724 72.8765 47.4826C74.6503 48.9925 75.1723 51.8631 74.442 56.0918L70.9462 74.9524H63.6416L66.9806 56.9412C67.3282 55.0529 67.224 53.7128 66.6677 52.9199C66.1115 52.1271 64.9115 51.7306 63.0677 51.7306L57.276 51.6741L52.9976 74.9524H45.7976L53.3109 34.2856Z" fill="white"/>
<path fill-rule="evenodd" clip-rule="evenodd" d="M20.3183 45.1042H34.3012C38.4052 45.1415 41.3795 46.426 43.2232 48.9554C45.0669 51.4853 45.6755 54.94 45.0493 59.3204C44.8063 61.3223 44.2667 63.2851 43.4319 65.2111C42.6317 67.1367 41.5192 68.8733 40.0929 70.4217C38.3533 72.385 36.4925 73.6308 34.5099 74.1601C32.5273 74.689 30.4747 74.953 28.3532 74.953H22.0922L20.1095 85.7144H12.8572L20.3183 45.1042ZM23.2922 68.5527L26.4123 51.6177H27.4663C27.8492 51.6177 28.2489 51.5984 28.6663 51.5611C31.4493 51.5234 33.7618 51.8067 35.6057 52.4105C37.4837 53.0144 38.1099 55.2991 37.4837 59.2638C36.7192 63.9841 35.2226 66.7403 32.9969 67.5331C30.771 68.2887 27.988 68.647 24.6488 68.6093H23.9183C23.7096 68.6093 23.501 68.59 23.2922 68.5527Z" fill="white"/>
<path fill-rule="evenodd" clip-rule="evenodd" d="M96.1564 45.1042H82.1734L74.7124 85.7144H81.9647L83.9477 74.953H90.2087C92.3301 74.953 94.3826 74.689 96.3651 74.1601C98.3481 73.6308 100.209 72.385 101.948 70.4217C103.374 68.8733 104.487 67.1367 105.287 65.2111C106.122 63.2851 106.662 61.3223 106.905 59.3204C107.531 54.94 106.923 51.4853 105.078 48.9554C103.235 46.426 100.261 45.1415 96.1564 45.1042ZM88.2677 51.6177L85.1477 68.5527C85.3564 68.59 85.5651 68.6093 85.7738 68.6093H86.5041C89.8435 68.647 92.6263 68.2887 94.8523 67.5331C97.0778 66.7403 98.5744 63.9841 99.3394 59.2638C99.9655 55.2991 99.3394 53.0144 97.461 52.4105C95.6173 51.8067 93.3047 51.5234 90.5215 51.5611C90.1041 51.5984 89.7047 51.6177 89.3215 51.6177H88.2677Z" fill="white"/>
</svg>
