<svg width="95" height="120" viewBox="0 0 95 120" fill="none" xmlns="http://www.w3.org/2000/svg">
<path d="M94.3457 106.44C94.3463 108.221 93.9961 109.984 93.3151 111.629C92.6341 113.274 91.6357 114.769 90.3769 116.028C89.118 117.287 87.6235 118.286 85.9785 118.968C84.3336 119.649 82.5705 120 80.79 120H0V13.56C-1.79584e-07 9.96441 1.42805 6.51602 3.97012 3.97315C6.51218 1.43028 9.96012 0.00113641 13.5557 0H94.3457V106.44Z" fill="#80152A"/>
<path d="M92.173 105.167C92.2135 106.836 91.9147 108.495 91.2948 110.045C90.6749 111.594 89.7467 113.002 88.5665 114.182C87.3863 115.362 85.9787 116.29 84.4291 116.91C82.8795 117.53 81.2201 117.829 79.5515 117.789H2.17297V14.8328C2.133 13.1642 2.43232 11.505 3.05279 9.95554C3.67325 8.40612 4.60193 6.99886 5.78251 5.81907C6.9631 4.63929 8.37099 3.71157 9.92083 3.09216C11.4707 2.47275 13.1302 2.17455 14.7987 2.21565H92.173V105.167Z" fill="url(#paint0_linear_107_139)"/>
<path d="M21.8829 2.3186L22.1743 28.5472L2.68286 35.0743L21.8829 2.3186Z" fill="#8A2034"/>
<path d="M21.8828 2.3186L22.1742 28.5472L47.8971 17.8243L21.8828 2.3186Z" fill="url(#paint1_linear_107_139)"/>
<path d="M11.2329 54.42L22.1743 28.5471L2.68286 35.0743L11.2329 54.42Z" fill="#AE2338"/>
<path d="M11.2329 54.4199L22.0286 80.7256L2.46436 74.4213L11.2329 54.4199Z" fill="url(#paint2_linear_107_139)"/>
<path d="M21.9215 117.609L22.0286 80.7257L2.46436 74.4214L21.9215 117.609Z" fill="#8A2034"/>
<path d="M21.9215 117.609L2.46436 117.613V74.4214L21.9215 117.609Z" fill="#8C2033"/>
<path d="M21.9214 117.608L22.0285 80.7256L47.85 91.3499L21.9214 117.608Z" fill="url(#paint3_linear_107_139)"/>
<path d="M73.6929 2.46436L73.9844 28.6972L47.8972 17.8244L73.6929 2.46436Z" fill="url(#paint4_linear_107_139)"/>
<path d="M73.6929 2.46436L73.9843 28.6972L92.1043 35.1472L73.6929 2.46436Z" fill="url(#paint5_linear_107_139)"/>
<path d="M84.6172 54.7287L73.9844 28.6973L92.1044 35.1473L84.6172 54.7287Z" fill="url(#paint6_linear_107_139)"/>
<path d="M84.6171 54.7285L73.9114 80.6142L92.0657 74.1299L84.6171 54.7285Z" fill="url(#paint7_linear_107_139)"/>
<path d="M74.13 117.54L73.9114 80.6142L92.0657 74.1299L74.13 117.54Z" fill="url(#paint8_linear_107_139)"/>
<path d="M74.13 117.54L73.9115 80.6143L47.8672 91.3414L74.13 117.54Z" fill="url(#paint9_linear_107_139)"/>
<path d="M74.1301 117.54L21.9258 117.613L47.8672 91.3413L74.1301 117.54Z" fill="url(#paint10_linear_107_139)"/>
<path d="M50.5415 62.4728L56.4129 65.1642L55.8172 60.9814L50.4643 58.1014L50.5415 62.4728ZM6.03003 76.4871L13.6757 77.3442L15.3429 70.2385L8.02288 68.9528L6.03003 76.4871ZM33.2229 27.2871L28.2086 23.5714L24.7286 28.2857L30.2186 31.7142L33.2229 27.2871ZM48.5486 14.8585L45.3429 10.6757L40.8343 13.3371L44.5843 17.4171L48.5486 14.8585ZM65.07 11.9228L64.0372 8.49425L58.6029 8.06567L60.18 11.8157L65.07 11.9228ZM83.4429 16.2085L78.8786 12.9471V15.0642L83.28 17.7857L83.4429 16.2085ZM21.7372 46.5771L15.4886 43.86L13.3672 50.0528L19.7957 52.4442L21.7372 46.5771ZM52.8515 43.7742L51.7372 47.6057L55.7615 51.3042L56.7686 47.7428L52.8515 43.7742ZM78.5315 26.6314L81.8743 26.7942L81.9043 25.2428L78.4243 24.5357L78.5315 26.6314ZM64.6372 13.7142C48.5615 12.9171 19.7829 28.1528 15.6515 89.2757H55.08C46.2429 66.3771 47.2672 49.1014 53.3443 37.3928C62.1815 20.3657 75.3386 19.2385 87.63 26.4171C88.0586 25.3842 88.6629 24.0814 88.6629 24.0814C85.558 20.8305 81.831 18.2375 77.7035 16.4565C73.576 14.6754 69.1324 13.7429 64.6372 13.7142ZM65.8157 26.4L67.2815 29.9057L69.9986 28.44L68.9915 25.2042L65.8157 26.4ZM56.9015 34.3628L59.9015 38.4685L61.7486 35.7771L59.13 31.7142L56.9015 34.3628ZM61.4657 82.1357L59.6015 77.6357L52.7786 76.35L54.5743 81.4928L61.4657 82.1357Z" fill="#F7DEE1"/>
<path d="M25.6116 27.1242L30.3259 25.1528L28.2087 23.5842L25.6116 27.1242Z" fill="white"/>
<path d="M44.5672 17.3958L45.8186 16.5858L41.4043 13.9543L44.5672 17.3958Z" fill="white"/>
<path d="M8.00999 68.9529L6.23999 75.6386L10.4314 76.9886L13.6586 77.3572L15.3257 70.2515L8.00999 68.9529Z" fill="#D7C4C9"/>
<path d="M17.8801 70.6201C17.4087 73.2915 16.9915 76.0801 16.6287 78.9858L22.0287 80.7258L17.8801 70.6201Z" fill="#D7C4C9"/>
<path d="M6.23995 75.6387L6.01709 76.4872L10.4314 76.9887L6.23995 75.6387Z" fill="#C2C3C6"/>
<path d="M22.0285 80.7258L16.6285 78.9858C16.2257 82.2644 15.8957 85.6887 15.6514 89.2716H22.0028L22.0285 80.7258Z" fill="#C2C3C6"/>
<path d="M22.0029 89.2756H42.8058L22.0286 80.7256L22.0029 89.2756Z" fill="#DDC3C8"/>
<path d="M80.0871 13.813L78.8614 12.9558V15.073L81.8142 16.8987L80.0871 13.813ZM83.3871 19.6758C80.4955 17.6013 77.2621 16.0507 73.8342 15.0944L73.9114 22.2472C78.5222 22.385 83.0215 23.6979 86.9828 26.0615L83.3871 19.6758ZM78.5314 26.6315L81.8742 26.7944L81.9042 25.243L78.4242 24.5358L78.5314 26.6315Z" fill="url(#paint11_linear_107_139)"/>
<path d="M73.8342 15.0942C70.831 14.2856 67.7453 13.8226 64.637 13.7142C58.8481 13.5779 53.1335 15.0385 48.1199 17.9356L64.487 24.7413C67.3551 23.0939 70.6081 22.2348 73.9156 22.2513L73.8342 15.0942ZM65.0484 11.9013L64.0156 8.47276L63.6427 8.43848L59.7299 10.7656L60.1584 11.7813L65.0484 11.9013ZM67.1913 25.8642L69.497 26.8285L68.987 25.1913L67.1913 25.8642Z" fill="url(#paint12_linear_107_139)"/>
<path d="M22.393 103.046V100.14C22.3234 99.0077 21.8408 97.9403 21.0367 97.1401C20.2325 96.3399 19.1628 95.8626 18.0301 95.7986H8.80298V113.229H13.5173V108.154L17.323 113.229H22.9758L18.553 107.357C19.5804 107.166 20.5151 106.638 21.2102 105.858C21.9053 105.078 22.3213 104.088 22.393 103.046ZM17.7558 103.903H13.4701V100.389H17.7558V103.903ZM36.0515 95.7129H31.7658C30.5958 95.7684 29.491 96.2678 28.6764 97.1095C27.8618 97.9512 27.3988 99.0717 27.3815 100.243V113.143H32.0187V109.74H36.1844V113.143H40.8987V100.217C40.8419 98.9818 40.3019 97.8182 39.3952 96.9773C38.4885 96.1363 37.2877 95.6853 36.0515 95.7215V95.7129ZM36.193 105.06H32.0273V100.389H36.193V105.06ZM79.3158 102H74.7815V100.097H82.7444V95.79H74.7558C73.5426 95.7667 72.3688 96.2208 71.4871 97.0544C70.6054 97.888 70.0863 99.0346 70.0416 100.247V102.094C70.0803 103.312 70.5887 104.467 71.4604 105.318C72.332 106.169 73.4992 106.649 74.7173 106.659H78.9301V108.776H70.3587V113.177H78.8015C79.9906 113.227 81.1533 112.818 82.0492 112.035C82.9451 111.252 83.5055 110.154 83.6144 108.969V106.659C83.6507 105.474 83.2207 104.322 82.4169 103.451C81.6131 102.58 80.4997 102.059 79.3158 102ZM60.3173 95.7515H55.6458V113.199H67.3158V108.531H60.3301L60.3173 95.7515ZM45.9173 113.199H50.6015V95.76H45.9258L45.9173 113.199Z" fill="white"/>
<defs>
<linearGradient id="paint0_linear_107_139" x1="2.17725" y1="59.9999" x2="92.173" y2="59.9999" gradientUnits="userSpaceOnUse">
<stop offset="0.08" stop-color="#AA2237"/>
<stop offset="0.982" stop-color="#B4313D"/>
</linearGradient>
<linearGradient id="paint1_linear_107_139" x1="21.8828" y1="15.4329" x2="47.8971" y2="15.4329" gradientUnits="userSpaceOnUse">
<stop offset="0.037" stop-color="#B83A41"/>
<stop offset="0.896" stop-color="#BF4A50"/>
</linearGradient>
<linearGradient id="paint2_linear_107_139" x1="12.2486" y1="80.7256" x2="12.2486" y2="54.4199" gradientUnits="userSpaceOnUse">
<stop offset="0.037" stop-color="#A92237"/>
<stop offset="0.939" stop-color="#972235"/>
</linearGradient>
<linearGradient id="paint3_linear_107_139" x1="34.8857" y1="117.608" x2="34.8857" y2="80.7256" gradientUnits="userSpaceOnUse">
<stop offset="0.037" stop-color="#BC4245"/>
<stop offset="0.939" stop-color="#A42136"/>
</linearGradient>
<linearGradient id="paint4_linear_107_139" x1="60.9386" y1="28.6972" x2="60.9386" y2="2.46436" gradientUnits="userSpaceOnUse">
<stop offset="0.037" stop-color="#CC5057"/>
<stop offset="0.896" stop-color="#B73840"/>
</linearGradient>
<linearGradient id="paint5_linear_107_139" x1="71.9272" y1="25.1401" x2="83.07" y2="18.7072" gradientUnits="userSpaceOnUse">
<stop offset="0.08" stop-color="#D4575F"/>
<stop offset="0.945" stop-color="#B63540"/>
</linearGradient>
<linearGradient id="paint6_linear_107_139" x1="73.9844" y1="41.713" x2="92.1044" y2="41.713" gradientUnits="userSpaceOnUse">
<stop stop-color="#C04B51"/>
<stop offset="1" stop-color="#B83A41"/>
</linearGradient>
<linearGradient id="paint7_linear_107_139" x1="73.9114" y1="67.6714" x2="92.0657" y2="67.6714" gradientUnits="userSpaceOnUse">
<stop stop-color="#BA4044"/>
<stop offset="1" stop-color="#B4303C"/>
</linearGradient>
<linearGradient id="paint8_linear_107_139" x1="70.0971" y1="91.1013" x2="84.0428" y2="96.1799" gradientUnits="userSpaceOnUse">
<stop stop-color="#972136"/>
<stop offset="1" stop-color="#9F2236"/>
</linearGradient>
<linearGradient id="paint9_linear_107_139" x1="58.1529" y1="82.7143" x2="81.9" y2="111.017" gradientUnits="userSpaceOnUse">
<stop offset="0.037" stop-color="#B22C3A"/>
<stop offset="0.939" stop-color="#C04D53"/>
</linearGradient>
<linearGradient id="paint10_linear_107_139" x1="48.0258" y1="117.613" x2="48.0258" y2="91.3413" gradientUnits="userSpaceOnUse">
<stop offset="0.037" stop-color="#B22C3A"/>
<stop offset="0.939" stop-color="#9B2135"/>
</linearGradient>
<linearGradient id="paint11_linear_107_139" x1="73.8342" y1="19.8644" x2="86.9871" y2="19.8644" gradientUnits="userSpaceOnUse">
<stop offset="0.037" stop-color="white"/>
<stop offset="0.742" stop-color="#F4E6D9"/>
</linearGradient>
<linearGradient id="paint12_linear_107_139" x1="52.1527" y1="10.937" x2="73.3713" y2="23.1899" gradientUnits="userSpaceOnUse">
<stop offset="0.037" stop-color="white"/>
<stop offset="0.896" stop-color="#F4E6D9"/>
</linearGradient>
</defs>
</svg>
