<svg width="139" height="120" viewBox="0 0 139 120" fill="none" xmlns="http://www.w3.org/2000/svg">
<path d="M81.5949 59.8886C81.5949 53.2683 76.0597 47.9006 69.2307 47.9006C62.4027 47.9006 56.8666 53.2683 56.8666 59.8886C56.8666 66.5099 62.4027 71.8771 69.2307 71.8771C76.0597 71.8771 81.5949 66.5099 81.5949 59.8886Z" fill="#53C1DE"/>
<path fill-rule="evenodd" clip-rule="evenodd" d="M109.386 37.6325C111.997 27.3451 115.279 8.26836 103.71 1.80073C92.1937 -4.6387 77.208 7.70044 69.2949 15.107C61.4049 7.77424 45.9983 -4.51214 34.4383 1.97602C22.927 8.43706 26.4768 27.1975 29.1457 37.5494C18.4076 40.5065 0 46.8757 0 59.8888C0 72.8649 18.3884 79.7945 29.063 82.7488C26.3842 93.1578 23.0121 111.65 34.5382 118.097C46.1414 124.584 61.5 112.59 69.4865 105.102C77.4503 112.553 92.292 124.625 103.81 118.16C115.364 111.675 112.355 92.8541 109.686 82.4423C120.034 79.4815 138.462 72.7029 138.462 59.8888C138.462 47.0008 119.955 40.5798 109.386 37.6325ZM108.075 76.9246C106.322 71.5458 103.957 65.826 101.064 59.9174C103.825 54.1481 106.099 48.5021 107.802 43.158C115.55 45.336 132.547 50.3137 132.547 59.8888C132.547 69.5538 116.237 74.5786 108.075 76.9246ZM100.846 113.197C92.2523 118.02 79.4866 106.475 73.6052 100.989C77.5071 96.8511 81.4062 92.0409 85.2115 86.6995C91.9057 86.124 98.2292 85.1825 103.964 83.8971C105.843 91.2618 109.478 108.352 100.846 113.197ZM37.4936 113.128C28.8989 108.323 32.8273 91.8212 34.798 84.1537C40.4693 85.3703 46.7474 86.2454 53.4572 86.7729C57.2875 91.9994 61.2997 96.8035 65.3428 101.011C60.3475 105.696 46.1285 117.955 37.4936 113.128ZM5.91457 59.8888C5.91457 50.1877 22.8096 45.246 30.734 43.0735C32.467 48.5377 34.7398 54.2511 37.4826 60.0286C34.7042 65.892 32.3989 71.6958 30.6501 77.2246C23.094 75.1274 5.91457 69.5958 5.91457 59.8888ZM37.4017 6.93941C46.0315 2.09612 59.4217 13.8915 65.1503 19.2006C61.128 23.3886 57.1528 28.1566 53.3552 33.3531C46.8434 33.9383 40.6096 34.878 34.8789 36.1371C32.7288 27.7879 28.7812 11.7775 37.4017 6.93941ZM89.4429 39.5866C93.8608 40.1271 98.0935 40.8461 102.068 41.7258C100.875 45.4338 99.3877 49.3112 97.6361 53.286C95.0972 48.6152 92.3718 44.0381 89.4429 39.5866ZM69.2968 23.2989C72.0249 26.1645 74.7572 29.3645 77.4452 32.8361C71.9931 32.586 66.5322 32.5851 61.08 32.8325C63.7703 29.393 66.5262 26.1977 69.2968 23.2989ZM40.8762 53.2818C39.1536 49.3209 37.6799 45.4265 36.4764 41.6654C40.427 40.8083 44.64 40.1077 49.0292 39.576C46.092 44.0178 43.3712 48.5931 40.8762 53.2818ZM49.1552 80.6109C44.6211 80.1203 40.3443 79.4552 36.3949 78.6217C37.6174 74.7946 39.1236 70.8162 40.8829 66.7698C43.4123 71.5075 46.1746 76.1271 49.1552 80.6109ZM69.4606 96.8838C66.6572 93.9508 63.8608 90.7066 61.1298 87.2174C66.6129 87.426 72.1066 87.4265 77.5892 87.1892C74.8929 90.7421 72.1703 93.9909 69.4606 96.8838ZM97.6925 66.564C99.5432 70.6541 101.103 74.6109 102.342 78.3734C98.3275 79.2618 93.9932 79.9772 89.4263 80.5085C92.3769 75.9725 95.1457 71.3243 97.6925 66.564ZM81.9106 81.2035C73.5235 81.7846 65.0843 81.7781 56.6945 81.2511C51.9272 74.4992 47.6834 67.3985 44.0202 60.0268C47.6658 52.6703 51.8788 45.5834 56.6234 38.8421C65.0192 38.2269 73.4668 38.2251 81.8626 38.8458C86.5666 45.5866 90.7731 52.6551 94.5032 59.9451C90.8174 67.2978 86.5823 74.3991 81.9106 81.2035ZM100.755 6.76892C109.387 11.5963 105.545 28.7412 103.659 36.1966C97.9149 34.9112 91.6768 33.9549 85.146 33.3605C81.3411 28.1079 77.3991 23.3316 73.4418 19.1976C79.2438 13.7742 92.2066 1.98872 100.755 6.76892Z" fill="#53C1DE"/>
</svg>
