<svg width="120" height="120" viewBox="0 0 120 120" fill="none" xmlns="http://www.w3.org/2000/svg">
<path fill-rule="evenodd" clip-rule="evenodd" d="M60 0C71.8669 0 83.4672 3.51894 93.3342 10.1118C103.201 16.7047 110.891 26.0754 115.433 37.039C119.974 48.0025 121.162 60.0665 118.847 71.7054C116.532 83.3443 110.818 94.0352 102.426 102.426C94.0352 110.818 83.3443 116.532 71.7054 118.847C60.0665 121.162 48.0025 119.974 37.039 115.433C26.0754 110.891 16.7047 103.201 10.1118 93.3342C3.51894 83.4672 0 71.8669 0 60C0 44.087 6.32141 28.8258 17.5736 17.5736C28.8258 6.32141 44.087 0 60 0Z" fill="#CC6699"/>
<path d="M97.6372 25.6801C94.92 15.0258 77.25 11.5373 60.5272 17.4601C50.0542 20.9793 40.3782 26.5295 32.0529 33.793C22.8429 42.4073 21.3729 49.9073 21.9772 53.0401C24.1201 64.0973 39.2615 71.323 45.4886 76.6844V76.7144C43.6543 77.6187 30.2143 84.4287 27.0601 91.3715C23.7429 98.7087 27.5872 103.972 30.1372 104.679C33.9657 105.6 37.9867 105.3 41.6361 103.821C45.2855 102.341 48.3801 99.7563 50.4858 96.4287C52.226 93.7326 53.3148 90.6685 53.6659 87.4788C54.017 84.2892 53.6208 81.0616 52.5086 78.0515C55.5081 77.2894 58.626 77.1104 61.6929 77.5244C72.2186 78.7544 74.2843 85.3244 73.89 88.0758C73.7046 89.0552 73.3104 89.9832 72.7343 90.7967C72.1583 91.6101 71.4138 92.29 70.5515 92.7901C69.8143 93.2487 69.5872 93.403 69.6515 93.7458C69.7415 94.2387 70.08 94.2215 70.71 94.1144C72.2918 93.6162 73.6855 92.6506 74.7076 91.3446C75.7297 90.0387 76.3322 88.4538 76.4358 86.7987C76.6886 80.3701 70.5129 73.1444 59.5758 73.3287C56.3992 73.238 53.2294 73.6724 50.1943 74.6144C50.0443 74.443 49.8901 74.2715 49.7315 74.1001C42.9686 66.8873 30.4715 61.783 30.9986 52.0844C31.1915 48.5573 32.4172 39.2744 54.9986 28.0115C73.5129 18.7844 88.3329 21.3258 90.8958 26.953C94.5558 34.993 82.9758 49.9287 63.75 52.0844C61.6251 52.5158 59.4303 52.4632 57.3284 51.9305C55.2266 51.3978 53.2716 50.3987 51.6086 49.0073C50.5972 47.893 50.4472 47.8458 50.0701 48.0515C49.4572 48.3901 49.8472 49.3758 50.0701 49.9587C50.8062 51.2854 51.7999 52.4518 52.9929 53.3894C54.1859 54.327 55.554 55.0169 57.0172 55.4187C64.5762 57.0612 72.4606 56.2814 79.5515 53.1901C91.2129 48.6944 100.307 36.1587 97.6372 25.6801ZM48.0772 79.9844C48.9284 82.9188 48.8851 86.0404 47.9529 88.9501C47.8529 89.253 47.7429 89.553 47.6229 89.8501C47.5029 90.1473 47.3729 90.433 47.2329 90.7073C46.5116 92.183 45.5774 93.5447 44.4601 94.7487C40.9758 98.5501 36.1029 99.9901 34.0158 98.7773C31.7615 97.4701 32.8886 92.1087 36.9301 87.8358C40.0354 84.7651 43.6157 82.2152 47.5329 80.2844L48.0772 79.9844Z" fill="white"/>
</svg>
