<svg width="120" height="120" viewBox="0 0 120 120" fill="none" xmlns="http://www.w3.org/2000/svg">
<ellipse cx="10.1282" cy="10.125" rx="10.1282" ry="10.125" transform="matrix(-1 0 0 1 98.2563 35)" fill="black"/>
<ellipse cx="10.1282" cy="10.125" rx="10.1282" ry="10.125" transform="matrix(-1 0 0 1 70.3533 34.6499)" fill="black"/>
<ellipse cx="10.1282" cy="10.125" rx="10.1282" ry="10.125" transform="matrix(-1 0 0 1 42.2563 35)" fill="black"/>
<path d="M12.4046 0H107.595C114.435 0 120 5.66055 120 12.6182V76.5824C120 83.5438 114.435 89.2043 107.595 89.2043H63.5043L25.9604 120V89.2043H12.4046C5.56483 89.2043 5.83928e-06 83.5438 5.83928e-06 76.5862V12.6182C5.83928e-06 5.66055 5.56108 0 12.4046 0ZM7.50352 76.5824C7.50352 79.4052 9.7047 81.7032 12.4084 81.7032H33.464V104.143L60.8269 81.7032H107.595C110.299 81.7069 112.5 79.4089 112.5 76.5862V12.6182C112.5 9.79538 110.299 7.49742 107.595 7.49742H12.4046C9.7047 7.49742 7.50352 9.79913 7.50352 12.6182V76.5824Z" fill="black"/>
</svg>
