<svg width="175" height="120" viewBox="0 0 175 120" fill="none" xmlns="http://www.w3.org/2000/svg">
<path d="M130.909 87.2727V21.8181H120V98.1818H163.636V87.2727H130.909Z" fill="white"/>
<path d="M98.1819 21.8181H76.3637C73.4704 21.8181 70.6956 22.9675 68.6498 25.0133C66.6039 27.0592 65.4546 29.8339 65.4546 32.7272V87.2727C65.4546 90.1659 66.6039 92.9407 68.6498 94.9866C70.6956 97.0324 73.4704 98.1818 76.3637 98.1818H81.8182V109.091C81.8182 111.984 82.9676 114.759 85.0134 116.805C87.0593 118.851 89.834 120 92.7273 120H103.636V109.091H92.7273V98.1818H98.1819C101.075 98.1818 103.85 97.0324 105.896 94.9866C107.942 92.9407 109.091 90.1659 109.091 87.2727V32.7272C109.091 29.8339 107.942 27.0592 105.896 25.0133C103.85 22.9675 101.075 21.8181 98.1819 21.8181ZM76.3637 87.2727V32.7272H98.1819V87.2727H76.3637Z" fill="white"/>
<path d="M43.6365 98.1818H10.9092V87.2727H43.6365V65.4545H21.8183C18.925 65.4545 16.1502 64.3051 14.1044 62.2593C12.0585 60.2134 10.9092 57.4387 10.9092 54.5454V32.7272C10.9092 29.8339 12.0585 27.0592 14.1044 25.0133C16.1502 22.9675 18.925 21.8181 21.8183 21.8181H54.5455V32.7272H21.8183V54.5454H43.6365C46.5297 54.5454 49.3045 55.6947 51.3503 57.7406C53.3962 59.7864 54.5455 62.5612 54.5455 65.4545V87.2727C54.5455 90.1659 53.3962 92.9407 51.3503 94.9866C49.3045 97.0324 46.5297 98.1818 43.6365 98.1818Z" fill="white"/>
</svg>
