<svg width="442" height="75" viewBox="0 0 442 75" fill="none" xmlns="http://www.w3.org/2000/svg">
<mask id="mask0_110_304" style="mask-type:luminance" maskUnits="userSpaceOnUse" x="0" y="0" width="442" height="75">
<path d="M441.186 0H0V75H441.186V0Z" fill="white"/>
</mask>
<g mask="url(#mask0_110_304)">
<path d="M239.52 19.5527C244.893 19.5527 249.248 15.3819 249.248 10.2368C249.248 5.09178 244.893 0.920898 239.52 0.920898C234.147 0.920898 229.792 5.09178 229.792 10.2368C229.792 15.3819 234.147 19.5527 239.52 19.5527Z" fill="url(#paint0_radial_110_304)"/>
<path d="M44.6969 24.4262H45.7104L44.6969 6.58801C39.1225 3.54739 31.2169 2.0271 25.0343 2.0271C11.1489 2.0271 0 9.12185 0 22.5005C0 44.5956 34.7643 43.4807 34.7643 61.8258C34.7643 70.5422 28.6831 73.9882 22.9059 73.9882C11.6557 73.9882 4.45955 64.2582 1.11489 51.0822H0.101354L1.11489 69.934C6.68933 72.9747 15.5071 75.0017 22.8046 75.0017C36.386 75.0017 48.8524 68.1097 48.8524 52.5012C48.8524 29.4939 14.0882 29.798 14.0882 12.4665C14.0882 5.77718 19.2572 3.04063 25.1357 3.04063C34.6629 3.04063 41.3523 13.48 44.6969 24.4262Z" fill="#045CFC"/>
<path d="M89.3274 30.4062V63.346C87.3003 65.0691 84.361 67.4002 79.6988 67.4002C76.0501 67.4002 74.2257 64.9677 74.2257 61.0149V22.2979H72.4014L51.3198 24.7303V25.7438C56.6916 26.2507 57.2997 26.6561 57.2997 30.4062V59.7987C57.2997 70.9476 63.685 75.0017 71.1851 75.0017C78.5839 75.0017 84.6651 70.4409 89.3274 64.3597H89.8342L90.2396 75.0017H91.2531L112.233 72.5693V71.5557C106.862 71.0489 106.253 70.6436 106.253 66.8935V22.2979H104.429L81.3205 24.7303V25.7438C88.7193 26.2507 89.3274 26.6561 89.3274 30.4062Z" fill="#045CFC"/>
<path d="M135.071 29.7979H134.564L135.071 0H134.058L112.165 2.43249V3.44602C117.536 3.95279 118.145 4.3582 118.145 8.10829V74.4948H119.159L127.368 68.9205C132.537 73.684 138.821 75.0017 143.99 75.0017C158.18 75.0017 169.328 64.9676 169.328 48.6497C169.328 33.4467 161.727 22.2978 148.957 22.2978C142.875 22.2978 138.314 25.2371 135.071 29.7979ZM141.152 28.379C146.929 28.379 151.49 34.6629 151.49 49.4605C151.49 62.3324 149.058 73.5827 142.571 73.5827C139.835 73.5827 135.071 72.4678 135.071 61.623V30.8115C136.997 29.1899 139.024 28.379 141.152 28.379Z" fill="#045CFC"/>
<path d="M173.471 30.9128L192.222 74.4948H201.04L216.952 31.521C218.472 27.5682 219.587 25.2371 224.452 24.3249V23.3113H204.587V24.3249C215.533 24.933 216.952 27.8723 215.533 31.8251L204.587 61.3189H204.384L192.729 31.8251C191.309 28.2776 191.715 24.933 197.594 24.3249V23.3113H167.492V24.3249C170.633 24.7302 172.053 27.5682 173.471 30.9128Z" fill="#045CFC"/>
<path d="M248.442 69.1233V22.2979H247.428L225.536 24.7303V25.7438C230.907 26.2507 231.516 26.6561 231.516 30.4062V69.1233C231.516 72.0624 230.907 72.4679 225.536 72.9747V73.9882H254.421V72.9747C249.05 72.4679 248.442 72.0624 248.442 69.1233Z" fill="#045CFC"/>
<path d="M292.091 38.5144H293.104L292.091 25.4399C288.036 23.5141 281.55 22.2979 276.786 22.2979C263.205 22.2979 257.225 28.9872 257.225 37.0955C257.225 55.5419 283.881 54.9337 283.881 66.8935C283.881 71.353 280.637 73.9882 275.469 73.9882C267.766 73.9882 261.076 68.7178 257.732 57.7717H256.719L257.834 71.4544C261.887 73.4814 269.692 75.0017 274.962 75.0017C287.936 75.0017 295.942 68.7178 295.942 59.0893C295.942 41.7578 269.996 42.3659 269.996 29.4939C269.996 25.5412 272.327 23.3114 276.584 23.3114C283.172 23.3114 289.354 31.3183 292.091 38.5144Z" fill="#045CFC"/>
<path d="M335.486 30.4062V63.346C333.458 65.0691 330.519 67.4002 325.857 67.4002C322.208 67.4002 320.384 64.9677 320.384 61.0149V22.2979H318.56L297.479 24.7303V25.7438C302.85 26.2507 303.458 26.6561 303.458 30.4062V59.7987C303.458 70.9476 309.844 75.0017 317.344 75.0017C324.743 75.0017 330.823 70.4409 335.486 64.3597H335.993L336.398 75.0017H337.411L358.392 72.5693V71.5557C353.02 71.0489 352.412 70.6436 352.412 66.8935V22.2979H350.588L327.479 24.7303V25.7438C334.878 26.2507 335.486 26.6561 335.486 30.4062Z" fill="#045CFC"/>
<path d="M404.541 67.6029V37.805C404.743 29.19 397.649 22.2979 385.081 22.2979C370.486 22.2979 362.277 33.1426 362.277 38.9199C362.277 42.7713 365.418 44.1903 368.763 44.1903C372.513 44.1903 375.148 42.2645 375.148 39.9334C375.148 36.9941 369.168 35.9806 369.168 31.9264C369.168 27.9737 373.426 25.5412 377.682 25.5412C384.879 25.5412 387.615 31.0143 387.615 36.6901V46.9267C365.621 48.2443 360.756 56.7581 360.756 63.0421C360.756 69.7313 365.115 75.0017 372.818 75.0017C378.898 75.0017 383.967 71.9611 387.412 66.8935H387.615V68.1098C387.615 71.8598 390.25 75.0017 396.027 75.0017C401.805 75.0017 406.973 72.3665 411.129 69.0219L411.028 68.211C409.71 69.0219 408.088 69.9341 406.872 69.9341C405.352 69.9341 404.541 69.0219 404.541 67.6029ZM387.615 47.9404V65.8799C386.297 66.6908 385.081 67.5016 383.256 67.5016C380.014 67.5016 377.986 65.1705 377.986 59.1906C377.986 51.5891 381.432 48.7512 387.615 47.9404Z" fill="#045CFC"/>
<path d="M435.213 69.1232V0H434.2L412.307 2.43249V3.44602C417.679 3.95279 418.288 4.3582 418.288 8.10829V69.1232C418.288 72.0624 417.679 72.4678 412.307 72.9746V73.9881H441.193V72.9746C435.821 72.4678 435.213 72.0624 435.213 69.1232Z" fill="#045CFC"/>
</g>
<defs>
<radialGradient id="paint0_radial_110_304" cx="0" cy="0" r="1" gradientUnits="userSpaceOnUse" gradientTransform="translate(246.01 3.79276) rotate(128.89) scale(15.4672 16.3354)">
<stop stop-color="#045CFC"/>
<stop offset="1" stop-color="#045CFC"/>
</radialGradient>
</defs>
</svg>
