<svg width="100" height="120" viewBox="0 0 100 120" fill="none" xmlns="http://www.w3.org/2000/svg">
<path d="M93.4861 15.8774C82.3432 -0.0709443 60.3361 -4.79809 44.4239 5.34009L16.4781 23.1512C8.84461 27.9536 3.58676 35.7489 1.99389 44.6256C0.660813 52.0205 1.83251 59.6487 5.32346 66.3026C2.93137 69.9312 1.29985 74.0072 0.527529 78.2842C-1.08075 87.3314 1.02303 96.645 6.36392 104.122C17.5091 120.072 39.5164 124.797 55.4261 114.66L83.3719 96.8487C91.0059 92.0468 96.264 84.2512 97.8561 75.3742C99.189 67.9795 98.0182 60.3514 94.529 53.6968C96.9205 50.0682 98.5513 45.9924 99.3229 41.7156C100.932 32.6684 98.8284 23.3544 93.4865 15.8774" fill="#FF3E00"/>
<path d="M41.6911 105.64C32.6805 107.983 23.1651 104.456 17.8586 96.8057C14.6452 92.3079 13.3793 86.7052 14.3469 81.2627C14.5091 80.3782 14.7323 79.506 15.0149 78.6523L15.5414 77.047L16.9735 78.0989C20.281 80.5292 23.9792 82.3769 27.9085 83.5625L28.9475 83.8777L28.8518 84.9146C28.7248 86.3897 29.1243 87.8622 29.9793 89.0709C31.5762 91.3752 34.4411 92.4386 37.1548 91.7342C37.7623 91.5718 38.3414 91.3173 38.8718 90.9796L66.8266 73.1653C68.2096 72.2944 69.1627 70.8822 69.453 69.2738C69.7428 67.6334 69.3614 65.9454 68.3947 64.589C66.7967 62.2842 63.9311 61.2204 61.2163 61.9242C60.6096 62.0866 60.0313 62.3409 59.5015 62.6783L48.8343 69.4784C47.0801 70.5937 45.1659 71.4343 43.1578 71.9711C34.1473 74.3139 24.6321 70.7868 19.3256 63.1371C16.112 58.6394 14.8462 53.0366 15.8139 47.5942C16.7719 42.2548 19.935 37.566 24.5272 34.6783L52.4795 16.8625C54.2343 15.7453 56.15 14.9036 58.1597 14.3667C67.1701 12.024 76.6853 15.551 81.9918 23.2006C85.2052 27.6984 86.471 33.3012 85.5035 38.7436C85.3406 39.628 85.1174 40.5002 84.8354 41.3541L84.309 42.9593L82.8776 41.909C79.5703 39.4774 75.8718 37.6288 71.9418 36.4431L70.9029 36.1278L70.9986 35.0909C71.1244 33.6159 70.7251 32.1439 69.8711 30.9347C68.2741 28.6304 65.4092 27.567 62.6955 28.2714C62.088 28.4338 61.509 28.6883 60.9785 29.026L33.0238 46.8411C31.6409 47.7113 30.6883 49.1234 30.3994 50.7315C30.1078 52.3718 30.4885 54.0604 31.4557 55.4169C33.0536 57.7216 35.9192 58.7854 38.634 58.0816C39.2414 57.9189 39.8204 57.6645 40.351 57.327L51.0169 50.5295C52.7702 49.4127 54.6844 48.5714 56.6927 48.0347C65.7032 45.6919 75.2184 49.219 80.5249 56.8688C83.7384 61.3665 85.0043 66.9692 84.0366 72.4116C83.078 77.7513 79.9151 82.4405 75.3233 85.3296L47.3709 103.144C45.616 104.261 43.7004 105.103 41.6906 105.64" fill="white"/>
</svg>
