<svg xmlns="http://www.w3.org/2000/svg" width="1840" height="690"><path d="M115 147h86l.028 29.308a90167.046 90167.046 0 0 0 .18 107.289l.005 2.9c.031 15.498.048 30.994.06 46.491.013 15.904.04 31.808.082 47.712.025 9.811.038 19.623.036 29.434 0 6.73.015 13.461.041 20.191.015 3.882.023 7.764.014 11.645-.01 4.214.011 8.427.035 12.641l-.023 3.697c.11 11.014 3.17 19.453 10.542 27.692 6.208 5.938 13.487 10.095 22.203 10.147l2.519.022 2.737.008 2.904.02c3.172.02 6.344.031 9.516.041l3.29.013c5.751.02 11.502.035 17.253.044 5.922.011 11.844.046 17.767.085 4.568.027 9.136.035 13.705.038 2.182.005 4.364.017 6.546.035 14.14.114 26.208.144 37.556-9.418 10.087-10.244 11.458-23.75 11.403-37.475l.02-3.941c.018-3.576.017-7.151.014-10.727 0-3.87.016-7.738.03-11.607.023-6.692.035-13.384.04-20.076.006-9.675.029-19.35.056-29.025.043-15.7.073-31.4.095-47.099.02-15.245.048-30.49.084-45.734l.006-2.851.034-14.16c.093-39.113.162-78.226.222-117.34h85a109447.43 109447.43 0 0 1 .165 119.33l.002 2.539c.013 13.526.037 27.053.064 40.58.029 13.903.045 27.805.051 41.708.004 8.563.017 17.126.042 25.69.016 5.89.02 11.78.017 17.67-.002 3.386.002 6.773.017 10.16.193 47.115-11.77 90.31-45.42 124.76-32.426 32.297-76.826 43.82-121.56 43.746C241.332 572.767 203.613 564.32 174 541l-2.734-2.117c-34.014-27-50.724-64.757-55.896-107.191-1.084-10.819-.887-21.693-.824-32.552.003-2.773 0-5.545-.002-8.317-.002-5.906.01-11.812.033-17.718.033-8.538.043-17.076.048-25.614.009-13.862.035-27.723.073-41.584.037-13.445.065-26.89.082-40.334l.003-2.522.016-12.529c.041-34.507.115-69.015.201-103.522ZM1663.837 279.213c2.424 2.226 4.793 4.504 7.163 6.787l2.137 1.945c26.626 24.952 38.603 62.993 42.863 98.055v34h-238c2.533 26.594 7.526 50.601 28 69l1.762 1.586C1526.806 506.2 1552.448 508.327 1576 507c5.568-.67 10.71-2.13 16-4l3.172-1.062c16.924-6.314 30.758-18.826 38.828-34.938l5-16h75c-.782 8.602-1.748 14.636-4.437 22.5l-1.065 3.141c-5.028 14.301-11.98 27.526-21.498 39.359-.72.92-1.439 1.84-2.18 2.79-20.176 25.342-47.618 41.302-78.82 49.21l-3.473.898c-43.357 10.244-90.263 3.79-128.527-18.898-3.858-2.465-7.452-5.11-11-8l-1.584-1.286c-3.876-3.16-7.663-6.408-11.416-9.714l-2.145-1.883C1436.202 518.176 1427.1 504.227 1420 490l-1.058-2.111c-21.048-42.796-22.37-95.346-7.293-140.262 13.892-39.173 40.8-71.481 78.516-89.67 15.202-7.063 31.17-11.895 47.835-13.957l2.621-.336c43.826-4.6 89.883 5.68 123.216 35.549ZM1498 334c-15.371 17.657-20 39.16-20 62h163c-1.556-26.45-6.169-49.515-25-69-33.781-29.429-87.694-24.638-118 7ZM768 266l2.047 1.758C791.847 287.9 798.563 319.587 800 348c.175 7.13.127 14.264.114 21.396v6.42c0 5.773-.006 11.547-.013 17.32-.006 6.048-.006 12.095-.008 18.142-.003 11.436-.01 22.87-.021 34.306-.011 13.026-.017 26.051-.022 39.077-.01 26.78-.028 53.56-.05 80.339h-82l-.028-20.68a45021.805 45021.805 0 0 0-.18-75.756l-.005-2.049c-.031-10.938-.048-21.875-.06-32.813-.013-11.23-.04-22.46-.082-33.69a5042.96 5042.96 0 0 1-.037-18.915c0-5.938-.017-11.875-.05-17.813-.008-2.176-.01-4.352-.004-6.528a871.38 871.38 0 0 0-.035-8.936l.023-2.588c-.114-8.113-2.603-16.458-8.542-22.232-9.246-7.058-18.55-7.35-29.824-7.316-2.144.003-4.286-.02-6.43-.045-20.788-.095-39.161 4.514-55.066 18.384-17.239 17.644-18.807 42.711-18.885 65.911l-.03 5.413c-.027 4.874-.048 9.747-.068 14.62-.022 5.102-.05 10.204-.076 15.307-.05 9.65-.095 19.3-.138 28.951-.05 10.992-.105 21.983-.16 32.975-.114 22.6-.22 45.2-.323 67.8h-78V251h72v81h5l.445-2.535C601.34 309.252 610.455 291.418 624 276l2.375-3.125C640.977 256.882 660.891 247.479 682 244l2.395-.398c30.214-3.916 60.367 2.085 83.605 22.398ZM903 165h69v86h86v63h-86c.09 27.127.09 27.127.209 54.254.054 11.065.106 22.13.137 33.196.023 8.06.057 16.119.103 24.178.024 4.265.042 8.53.049 12.795.006 4.02.026 8.04.056 12.06.009 1.47.013 2.94.011 4.41-.01 12.53 1.67 22.96 9.435 33.107 10.255 10.085 24.65 11.252 38.355 11.414l2.767.054c3.355.062 6.71.109 10.066.157L1056 500v65c-16.128.12-16.128.12-23.146.146-4.74.018-9.478.039-14.217.08-33.316.283-68.104-.594-93.616-25.15A398.755 398.755 0 0 1 921 536l-2.2-2.137c-20.55-21.196-23.987-52.275-23.914-80.34v-4.586c0-4.117.006-8.234.013-12.351.006-4.315.006-8.63.008-12.945.003-8.156.01-16.312.021-24.468.011-9.291.017-18.582.022-27.874.01-19.1.028-38.2.05-57.299h-53v-63c22.5-.25 22.5-.25 29.557-.298 1.866-.03 3.733-.06 5.6-.093l2.885-.003c6.139-.13 10.82-1.125 15.958-4.606 1.88-1.883 1.88-1.883 2.938-4l1.152-2c1.933-4.248 2.056-8.14 2.115-12.788l.03-2.074c.032-2.207.057-4.415.081-6.622l.057-4.099c.068-5.055.128-10.111.19-15.167L903 165ZM1272 118h78v447h-78V118ZM1120 251h77c1 1 1 1 1.124 3.131l-.001 2.88.006 3.31-.009 3.682.003 3.876c.002 3.566-.002 7.133-.007 10.699-.004 3.84-.003 7.68-.002 11.52 0 6.658-.003 13.316-.008 19.974-.008 9.627-.011 19.254-.012 28.88-.002 15.617-.01 31.234-.019 46.851-.009 15.175-.016 30.35-.02 45.524v2.832l-.005 14.066c-.01 38.925-.028 77.85-.05 116.775h-78V251Z" fill="#0953B5"/><path d="M1120 118h78v78h-78v-78Z" fill="#0A54B6"/><path d="M1347 118h3v447l-3-1V118Z" fill="#024EAE"/><path d="m1196 251 2 1v313l-3-1a385088.897 385088.897 0 0 1-.055-133.246v-2.827c-.005-15.124-.013-30.249-.022-45.373-.01-15.507-.015-31.014-.017-46.522-.001-9.576-.006-19.153-.014-28.73-.005-6.558-.007-13.116-.006-19.673.001-3.79 0-7.58-.005-11.369-.006-4.098-.004-8.197-.001-12.295l-.01-3.67.007-3.3-.001-2.87C1195 252 1195 252 1196 251Z" fill="#034E92"/><path d="M1120 118h3v77h72v-77h3v78h-78v-78Z" fill="#0650B4"/><path d="M898 313v160c-3.261-4.349-3.373-5.205-3.36-10.365l-.013-3.97.032-4.348v-4.583c-.002-4.146.016-8.292.037-12.439.019-4.333.02-8.667.024-13 .01-8.206.034-16.412.064-24.617.033-9.342.05-18.685.065-28.027.031-19.217.084-38.434.151-57.651 2-1 2-1 3-1Z" fill="#024CB1"/><path d="M842 251h42v1h-39v61h50v1h-53v-63Z" fill="#0452A9"/><path d="M1195 118h3v78l-4-1 1-77Z" fill="#034E93"/><path d="M898 476h1c.531 2.748 1.05 5.498 1.563 8.25l.458 2.355c.14.755.278 1.509.42 2.286l.397 2.094c.18 2.228-.186 3.89-.838 6.015l-2-1c-1.655-6.678-2.567-13.263-1-20Z" fill="#034CAF"/><path d="M902 498c1.8 2.7 2.934 5.067 4.125 8.063l1.07 2.66C908 511 908 511 908 513h-3a281.113 281.113 0 0 1-2.063-4.688l-1.16-2.636c-.87-2.998-.627-4.709.223-7.676Z" fill="#044AAE"/><path d="M601 321c1.417 4.25.193 6.719-1 11l-3-2c1.75-6.75 1.75-6.75 4-9Z" fill="#044CAD"/><path d="M904 232h1c-.438 4.557-.85 7.577-4 11-1.255-3.766-.37-5.372 1-9h2v-2Z" fill="#044AAF"/><path d="m795 326 1 3h2l-1 11h-1l-1-14Z" fill="#024AB1"/><path d="M602 312h3l-2 8c-2-3-2-3-1.625-5.688L602 312Z" fill="#044BB0"/></svg>