<svg width="258" height="75" viewBox="0 0 258 75" fill="none" xmlns="http://www.w3.org/2000/svg">
<path d="M28.7074 57.932V53.1509C24.8851 57.3937 19.4481 59.8326 13.7377 59.8663C4.57925 59.8663 3.58912e-05 55.0179 3.58912e-05 46.4398V17.1101C-0.00416909 16.6517 0.361641 16.2733 0.819984 16.2522H8.33849C8.81366 16.2522 9.20051 16.6349 9.21313 17.1101V42.9707C9.21313 49.5767 12.5561 51.7002 17.8333 51.7002C22.1014 51.5867 26.0835 49.5473 28.6696 46.1538V17.1101C28.6738 16.6349 29.0607 16.2522 29.54 16.2522H37.0753C37.5463 16.2522 37.9332 16.6349 37.9332 17.1101V57.932C37.9332 58.4071 37.5463 58.7898 37.0753 58.7898H29.5526C29.0859 58.7772 28.7116 58.3987 28.7074 57.932ZM58.2516 52.8944V74.138C58.2516 74.6131 57.869 75 57.3938 75H49.8711C49.3959 75 49.0049 74.6173 48.9965 74.138V17.1101C49.0049 16.6349 49.3917 16.2522 49.8711 16.2522H57.3938C57.869 16.2522 58.2516 16.6349 58.2516 17.1101V22.0635C61.4726 17.7156 66.5733 15.159 71.9851 15.1884C82.9979 15.1884 90.7856 23.4722 90.7856 37.479C90.7856 51.4857 82.9475 59.8494 71.9851 59.8494C66.5817 59.8242 61.5105 57.2424 58.3021 52.8944H58.2516ZM81.236 37.479C81.236 29.1951 76.4802 23.3797 69.1509 23.3797C64.8282 23.4553 60.7956 25.541 58.2348 29.0185V45.8427C60.762 49.3875 64.803 51.5362 69.1509 51.6582C76.5349 51.6582 81.2907 45.7502 81.2907 37.479H81.236ZM128.786 58.7898C128.311 58.7898 127.928 58.4071 127.928 57.932V32.0167C127.928 25.3013 124.568 23.3797 119.375 23.3797C115.069 23.5016 111.054 25.5789 108.459 29.0185V57.9278C108.451 58.4029 108.06 58.7856 107.584 58.7856H100.184C99.7086 58.7856 99.3217 58.4029 99.3133 57.9278V0.899865C99.2965 0.420497 99.6791 0.0168199 100.158 0C100.167 0 100.18 0 100.184 0H107.69C108.165 0 108.556 0.382652 108.564 0.857815V21.9668C112.361 17.6819 117.807 15.2136 123.534 15.1884C132.688 15.1884 137.272 19.9442 137.272 28.6191V57.932C137.272 58.4071 136.889 58.7898 136.414 58.7898H128.786ZM145.707 37.479C145.707 25.234 153.991 15.1884 167.556 15.1884C181.117 15.1884 189.401 25.234 189.401 37.479C189.401 49.7239 181.117 59.8494 167.556 59.8494C153.995 59.8494 145.761 49.686 145.761 37.479H145.707ZM179.801 37.479C179.801 29.9857 175.491 23.3797 167.556 23.3797C159.617 23.3797 155.311 29.9857 155.311 37.479C155.311 44.9722 159.714 51.6582 167.556 51.6582C175.394 51.6582 179.855 45.0521 179.855 37.479H179.801ZM197.941 57.932V0.899865C197.95 0.424703 198.336 0.0420489 198.812 0.0420489H206.317C206.793 0.0420489 207.184 0.424703 207.192 0.899865V57.9278C207.184 58.4029 206.797 58.7856 206.317 58.7856H198.812C198.357 58.7562 198 58.3819 197.996 57.9278H197.941V57.932ZM248.245 57.932V52.9743C245.024 57.2844 239.97 59.8326 234.588 59.8494C223.751 59.8494 215.787 51.5656 215.787 37.479C215.787 23.7287 223.713 15.1884 234.588 15.1884C240.004 15.1421 245.096 17.7408 248.245 22.1434V0.899865C248.245 0.424703 248.628 0.0420489 249.103 0.0420489H256.626C257.101 0.0420489 257.484 0.424703 257.484 0.899865V57.9278C257.484 58.4029 257.101 58.7856 256.626 58.7856H249.103C248.649 58.7562 248.3 58.3819 248.3 57.9278H248.245V57.932ZM248.245 45.9394V29.1152C245.705 25.5873 241.66 23.4638 237.312 23.3797C229.916 23.3797 225.227 29.2877 225.227 37.479C225.227 45.6703 229.899 51.6582 237.312 51.6582C241.669 51.5909 245.743 49.4716 248.296 45.9352H248.245V45.9394Z" fill="#49CC68"/>
</svg>
