<svg width="172" height="56" viewBox="0 0 172 56" fill="none" xmlns="http://www.w3.org/2000/svg">
<path d="M67.5 36.8001V34.6001C65.8 36.5001 63.3 37.6001 60.7 37.7001C56.5 37.7001 54.5 35.5001 54.5 31.6001V18.2001C54.5 18.0001 54.7 17.8001 54.9 17.8001H58.3C58.5 17.8001 58.7 18.0001 58.7 18.2001V30.0001C58.7 33.0001 60.2 34.0001 62.6 34.0001C64.5 33.9001 66.4 33.0001 67.5 31.5001V18.2001C67.5 18.0001 67.7 17.8001 67.9 17.8001H71.3C71.5 17.8001 71.7 18.0001 71.7 18.2001V36.8001C71.7 37.0001 71.5 37.2001 71.3 37.2001H67.9C67.6 37.2001 67.5 37.0001 67.5 36.8001ZM80.9 34.5001V44.2001C80.9 44.4001 80.7 44.6001 80.5 44.6001H77.1C76.9 44.6001 76.7 44.4001 76.7 44.2001V18.2001C76.7 18.0001 76.9 17.8001 77.1 17.8001H80.5C80.7 17.8001 80.9 18.0001 80.9 18.2001V20.5001C82.4 18.5001 84.7 17.4001 87.1 17.4001C92.1 17.4001 95.7 21.2001 95.7 27.5001C95.7 33.8001 92.1 37.7001 87.1 37.7001C84.7 37.7001 82.4 36.5001 80.9 34.5001ZM91.4 27.5001C91.4 23.7001 89.2 21.1001 85.9 21.1001C83.9 21.1001 82.1 22.1001 80.9 23.7001V31.4001C82.1 33.0001 83.9 34.0001 85.9 34.1001C89.2 34.0001 91.4 31.3001 91.4 27.5001ZM113 37.2001C112.8 37.2001 112.6 37.0001 112.6 36.8001V25.0001C112.6 21.9001 111.1 21.1001 108.7 21.1001C106.7 21.1001 104.9 22.1001 103.7 23.7001V36.9001C103.7 37.1001 103.5 37.3001 103.3 37.3001H100C99.8 37.3001 99.6 37.1001 99.6 36.9001V10.9001C99.6 10.7001 99.8 10.5001 100 10.5001H103.4C103.6 10.5001 103.8 10.7001 103.8 10.9001V20.5001C105.5 18.6001 108 17.4001 110.6 17.4001C114.8 17.4001 116.8 19.6001 116.8 23.5001V36.8001C116.8 37.0001 116.6 37.2001 116.4 37.2001H113ZM120.7 27.5001C120.7 21.9001 124.5 17.4001 130.6 17.4001C136.7 17.4001 140.5 22.0001 140.5 27.5001C140.5 33.0001 136.7 37.7001 130.6 37.7001C124.5 37.7001 120.7 33.1001 120.7 27.5001ZM136.2 27.5001C136.2 24.1001 134.2 21.1001 130.6 21.1001C127 21.1001 125 24.1001 125 27.5001C125 30.9001 127 34.0001 130.6 34.0001C134.2 34.0001 136.2 31.0001 136.2 27.5001ZM144.5 36.8001V10.8001C144.5 10.6001 144.7 10.4001 144.9 10.4001H148.3C148.5 10.4001 148.7 10.6001 148.7 10.8001V36.8001C148.7 37.0001 148.5 37.2001 148.3 37.2001H144.9C144.7 37.2001 144.5 37.1001 144.5 36.8001ZM167.4 36.8001V34.6001C165.9 36.6001 163.6 37.7001 161.2 37.7001C156.3 37.7001 152.6 33.9001 152.6 27.5001C152.6 21.3001 156.2 17.4001 161.2 17.4001C163.7 17.4001 166 18.5001 167.4 20.5001V10.8001C167.4 10.6001 167.6 10.4001 167.8 10.4001H171.2C171.4 10.4001 171.6 10.6001 171.6 10.8001V36.8001C171.6 37.0001 171.4 37.2001 171.2 37.2001H167.8C167.5 37.2001 167.4 37.1001 167.4 36.8001ZM167.4 31.3001V23.6001C166.2 22.0001 164.4 21.0001 162.4 21.0001C159 21.0001 156.9 23.7001 156.9 27.4001C156.9 31.1001 159 33.9001 162.4 33.9001C164.3 33.9001 166.2 33.0001 167.4 31.3001ZM25.2 51.2001C23.5 51.7001 21.8 52.0001 20.1 52.0001H19.9C18.2 52.0001 16.4 51.7001 14.8 51.2001C14 50.9001 13.1 51.3001 12.8 52.1001C12.5 52.9001 12.9 53.8001 13.7 54.1001C13.8 54.1001 13.8 54.1001 13.9 54.2001C15.8 54.8001 17.9 55.1001 19.9 55.1001H20.1C22.1 55.1001 24.2 54.8001 26.1 54.2001C26.9 53.9001 27.3 53.0001 27 52.2001C26.7 51.4001 26 51.0001 25.2 51.2001ZM38.5 13.6001C35.2 3.3001 24.2 -2.2999 13.9 1.0001C8.00002 2.9001 3.30002 7.6001 1.40002 13.5001C-0.299984 18.6001 0.300013 25.3001 3.10001 31.7001C6.90001 40.3001 13.8 46.4001 19.9 46.4001H20C26.1 46.4001 33 40.4001 36.8 31.7001C39.6 25.4001 40.2 18.6001 38.5 13.6001ZM29.5 6.2001C26.4 6.0001 23 7.4001 19.9 10.0001C16.8 7.4001 13.4 6.1001 10.3 6.2001C16.1 2.1001 23.8 2.1001 29.5 6.2001ZM22.4 42.8001C20.8 43.5001 19 43.5001 17.4 42.8001C12.2 40.4001 11.1 30.8001 15.1 21.7001C16.3 18.9001 18 16.4001 20 14.2001C22 16.4001 23.6 19.0001 24.8 21.7001C28.7 30.7001 27.7 40.4001 22.4 42.8001ZM5.80001 30.5001C3.30001 24.8001 2.70002 18.9001 4.20002 14.5001C4.80002 12.5001 6.20001 10.7001 8.10001 9.8001C10.8 8.5001 14.3 9.4001 17.7 12.1001C15.5 14.6001 13.6 17.4001 12.3 20.5001C9.60001 26.6001 9.00001 32.8001 10.3 37.7001C8.50001 35.5001 7.00001 33.1001 5.80001 30.5001ZM34 30.5001C32.9 33.1001 31.4 35.5001 29.6 37.7001C30.8 32.9001 30.2 26.6001 27.6 20.5001C26.3 17.4001 24.4 14.6001 22.2 12.1001C25.6 9.4001 29 8.5001 31.8 9.8001C33.7 10.8001 35.1 12.5001 35.7 14.5001C37.1 18.9001 36.5 24.8001 34 30.5001Z" fill="#49CC68"/>
</svg>
