<svg width="683" height="683" fill="none" xmlns="http://www.w3.org/2000/svg"><path d="m340.5 83 231.662 414H108.838L340.5 83Z" fill="#000"/><path d="M308 1.467C241.067 8.8 178.133 34.667 127.333 75.6 110.133 89.467 82 118.4 69.6 134.933 34.267 182.133 11.733 236 3.2 294c-2.933 19.6-3.867 57.067-2 76.667 5.6 57.733 24 111.066 54 156.533 55.2 83.867 139.6 137.6 238.8 152.267 19.6 2.933 57.067 3.866 76.667 2 57.733-5.6 111.066-24 156.533-54 83.867-55.2 137.6-139.6 152.267-238.8 2.933-19.6 3.866-57.067 2-76.667-6.8-69.867-31.734-131.733-74.4-184.667-13.867-17.2-42.8-45.333-59.334-57.733-47.2-35.333-100.666-57.6-159.066-66.4C372.533.8 323.733-.267 308 1.467Zm121.2 313.066c46.267 80.934 84.133 147.334 84.133 147.6 0 .267-75.866.534-168.666.534S176 462.4 176 462c0-1.067 168.4-295.467 168.8-294.933.133.133 38.267 66.533 84.4 147.466Z" fill="#fff"/></svg>