<svg width="120" height="120" viewBox="0 0 120 120" fill="none" xmlns="http://www.w3.org/2000/svg">
<path d="M86.6384 71.9208C85.1184 71.2008 77.8386 67.6009 76.4786 67.0409C75.1186 66.4809 74.1586 66.3209 73.1186 67.8409C72.0787 69.3609 69.2787 72.6408 68.3987 73.6808C67.5187 74.7208 66.7188 74.8008 65.1988 73.6808C60.8331 71.9288 56.8011 69.4392 53.279 66.3209C50.0907 63.3191 47.3914 59.8371 45.2791 56.0011C44.3991 54.5611 45.2791 53.7611 45.9191 52.9612C46.5591 52.1612 47.3591 51.2812 48.1591 50.4012C48.7441 49.6402 49.2281 48.8066 49.599 47.9212C49.7975 47.5095 49.9006 47.0583 49.9006 46.6013C49.9006 46.1442 49.7975 45.693 49.599 45.2813C49.599 44.5613 46.2391 37.2814 44.9591 34.3215C43.6791 31.3615 42.5592 31.7615 41.6792 31.7615H38.4792C36.9549 31.8209 35.5163 32.4827 34.4793 33.6015C32.8054 35.1988 31.4795 37.1247 30.5847 39.2585C29.6899 41.3922 29.2455 43.6878 29.2794 46.0013C29.6886 51.681 31.777 57.1109 35.2793 61.601C41.7061 71.1483 50.4988 78.866 60.7988 84.0006C64.3188 85.5206 67.0387 86.4006 69.1987 87.1206C72.2318 88.0373 75.4378 88.2291 78.5586 87.6806C80.6313 87.2601 82.5955 86.4182 84.3294 85.2072C86.0633 83.9962 87.53 82.4419 88.6384 80.6407C89.5608 78.4163 89.8649 75.9839 89.5184 73.6008C89.1184 73.0408 88.1584 72.6408 86.6384 71.9208Z" fill="black"/>
<path d="M101.598 17.4417C96.0658 11.8569 89.4709 7.43651 82.2027 4.44127C74.9344 1.44604 67.1399 -0.0633809 59.279 0.00203898C48.8655 0.0565335 38.6486 2.84225 29.6486 8.08095C20.6487 13.3197 13.1807 20.828 7.99057 29.8561C2.80045 38.8841 0.0698372 49.1159 0.0714681 59.5295C0.073099 69.9431 2.80691 80.1741 7.99986 89.2005L0 120L31.5195 112C40.2332 116.742 49.9987 119.217 59.919 119.2H59.279C71.1021 119.277 82.6803 115.831 92.5371 109.301C102.394 102.772 110.083 93.4543 114.623 82.5374C119.163 71.6204 120.349 59.5986 118.029 48.005C115.709 36.4114 109.989 25.7714 101.598 17.4417ZM59.279 108.96C50.4036 108.967 41.6931 106.561 34.0794 102L32.3195 100.96L13.5998 105.84L18.5597 87.6005L17.4397 85.7606C11.0507 75.4714 8.66074 63.195 10.7234 51.2605C12.7861 39.326 19.1578 28.5638 28.6296 21.016C38.1015 13.4681 50.0145 9.65963 62.1082 10.3132C74.202 10.9668 85.6351 16.0369 94.2384 24.5616C98.8506 29.1367 102.506 34.5839 104.992 40.5859C107.478 46.5879 108.745 53.0246 108.718 59.521C108.697 72.6266 103.481 85.1894 94.2144 94.4564C84.9473 103.723 72.3846 108.939 59.279 108.96Z" fill="black"/>
</svg>
