<svg width="722" height="49" viewBox="0 0 722 49" fill="none" xmlns="http://www.w3.org/2000/svg">
<path d="M0.5 49V0H14.5V21H35.5V0H49.5V49H35.5V28H14.5V49H0.5ZM63.5 49V42H77.5V7H63.5V0H105.5V7H91.5V42H105.5V49H63.5ZM126.5 35V0H147.5V21H140.5V35H126.5ZM126.5 49V42H140.5V49H126.5ZM231.5 49V42H245.5V7H231.5V0H273.5V7H259.5V42H273.5V49H231.5ZM294.5 21V14H301.5V0H315.5V14H308.5V21H294.5ZM336.5 49V14H378.5V21H385.5V49H371.5V21H364.5V49H350.5V21H343.5V49H336.5ZM448.5 49V0H490.5V7H497.5V28H490.5V35H462.5V49H448.5ZM462.5 28H483.5V7H462.5V28ZM511.5 49V42H504.5V21H511.5V14H546.5V21H553.5V35H518.5V42H546.5V49H511.5ZM518.5 28H539.5V21H518.5V28ZM567.5 49V42H560.5V21H567.5V14H595.5V0H609.5V49H567.5ZM574.5 42H595.5V21H574.5V42ZM637.5 21H644.5V28H637.5V49H623.5V14H637.5V21ZM665.5 14V21H644.5V14H665.5ZM679.5 49V42H672.5V21H679.5V14H714.5V21H721.5V42H714.5V49H679.5ZM686.5 42H707.5V21H686.5V42Z" fill="#EEEEEE"/>
</svg>
